<?xml version="1.0" encoding="UTF-8" standalone="no"?>
<svg
   xmlns:dc="http://purl.org/dc/elements/1.1/"
   xmlns:cc="http://creativecommons.org/ns#"
   xmlns:rdf="http://www.w3.org/1999/02/22-rdf-syntax-ns#"
   xmlns:svg="http://www.w3.org/2000/svg"
   xmlns="http://www.w3.org/2000/svg"
   xmlns:sodipodi="http://sodipodi.sourceforge.net/DTD/sodipodi-0.dtd"
   xmlns:inkscape="http://www.inkscape.org/namespaces/inkscape"
   sodipodi:docname="ethgdl_logo.svg"
   inkscape:version="1.0 (4035a4fb49, 2020-05-01)"
   id="svg8"
   version="1.1"
   viewBox="0 0 210 297"
   height="297mm"
   width="210mm">
  <defs
     id="defs2" />
  <sodipodi:namedview
     inkscape:document-rotation="0"
     inkscape:window-maximized="1"
     inkscape:window-y="612"
     inkscape:window-x="768"
     inkscape:window-height="746"
     inkscape:window-width="1364"
     showgrid="false"
     inkscape:current-layer="layer1"
     inkscape:document-units="mm"
     inkscape:cy="956.81289"
     inkscape:cx="494.22296"
     inkscape:zoom="1.4047116"
     inkscape:pageshadow="2"
     inkscape:pageopacity="0.0"
     borderopacity="1.0"
     bordercolor="#666666"
     pagecolor="#ffffff"
     id="base" />
  <metadata
     id="metadata5">
    <rdf:RDF>
      <cc:Work
         rdf:about="">
        <dc:format>image/svg+xml</dc:format>
        <dc:type
           rdf:resource="http://purl.org/dc/dcmitype/StillImage" />
        <dc:title />
      </cc:Work>
    </rdf:RDF>
  </metadata>
  <g
     id="layer1"
     inkscape:groupmode="layer"
     inkscape:label="Layer 1">
    <rect
       inkscape:export-filename="/home/hugo/workspace/ethgdl/www/logo64x64.png"
       style="fill:#ffffff;stroke-width:1.02878;fill-opacity:0"
       id="rect1124"
       width="81.752121"
       height="81.8964"
       x="117.75339"
       y="206.26312"
       inkscape:export-xdpi="19.879999"
       inkscape:export-ydpi="19.879999" />
    <rect
       inkscape:export-ydpi="62.171646"
       inkscape:export-xdpi="62.171646"
       y="89.058144"
       x="-12.494535"
       height="104.58787"
       width="104.75313"
       id="rect1113"
       style="fill:#ffffff;stroke-width:1.31603" />
    <rect
       style="opacity:1;fill:#bf39e9;fill-opacity:1;stroke:none;stroke-width:0.20171385;stroke-opacity:1"
       id="rect4791"
       width="97.929611"
       height="14.019395"
       x="65.737816"
       y="43.014442" />
    <g
       id="g1100">
      <path
         style="fill:#bf39e9;fill-opacity:1;fill-rule:evenodd;stroke:none;stroke-width:0.26458332px;stroke-linecap:butt;stroke-linejoin:miter;stroke-opacity:1"
         d="m 27.279306,225.08358 -16.21173,27.55992 16.21173,10.08729 16.93224,-10.08729 z"
         id="path4637"
         inkscape:connector-curvature="0" />
      <path
         style="fill:#bf39e9;fill-opacity:1;fill-rule:evenodd;stroke:none;stroke-width:0.26458332px;stroke-linecap:butt;stroke-linejoin:miter;stroke-opacity:1"
         d="m 20.197796,281.09972 -9.49048,-26.56485 13.06034,14.09515 18.89827,-4.65191 z"
         id="path4639"
         inkscape:connector-curvature="0" />
      <path
         style="fill:#fff400;fill-opacity:1;fill-rule:evenodd;stroke:none;stroke-width:0.26458332px;stroke-linecap:butt;stroke-linejoin:miter;stroke-opacity:1"
         d="m 27.279306,225.08358 -3.75915,6.04982 h 7.61633 z"
         id="path4729"
         inkscape:connector-curvature="0" />
      <path
         style="fill:#67b51f;fill-opacity:1;fill-rule:evenodd;stroke:none;stroke-width:0.26458332px;stroke-linecap:butt;stroke-linejoin:miter;stroke-opacity:1"
         d="m 23.520156,231.1334 h 7.61633 l 3.47072,5.49532 h -14.36496 z"
         id="path4731"
         inkscape:connector-curvature="0" />
      <path
         style="fill:#5f33ff;fill-opacity:1;fill-rule:evenodd;stroke:none;stroke-width:0.26458332px;stroke-linecap:butt;stroke-linejoin:miter;stroke-opacity:1"
         d="m 20.242246,236.62872 -5.59173,9.64091 13.11164,4.33842 12.82242,-4.33842 -5.97737,-9.64091 z"
         id="path4733"
         inkscape:connector-curvature="0" />
      <path
         style="fill:#fff400;fill-opacity:1;fill-rule:evenodd;stroke:none;stroke-width:0.26710239px;stroke-linecap:butt;stroke-linejoin:miter;stroke-opacity:1"
         d="m 20.197796,281.09972 -2.19758,-6.02586 7.10774,2.14206 z"
         id="path4735"
         inkscape:connector-curvature="0" />
      <path
         style="fill:#67b51f;fill-opacity:1;fill-rule:evenodd;stroke:none;stroke-width:0.26458332px;stroke-linecap:butt;stroke-linejoin:miter;stroke-opacity:1"
         d="m 18.000216,275.07386 7.10774,2.14206 4.63059,-3.33701 -13.8551,-4.47758 z"
         id="path4737"
         inkscape:connector-curvature="0" />
      <path
         style="fill:#5f33ff;fill-opacity:1;fill-rule:evenodd;stroke:none;stroke-width:0.26458332px;stroke-linecap:butt;stroke-linejoin:miter;stroke-opacity:1"
         d="m 15.883446,269.40133 13.8551,4.47758 9.16002,-7.00657 -16.30316,3.64554 -10.28163,-11.6574 z"
         id="path4739"
         inkscape:connector-curvature="0" />
      <path
         style="fill:#fff400;fill-opacity:1;fill-rule:evenodd;stroke:none;stroke-width:0.26458332px;stroke-linecap:butt;stroke-linejoin:miter;stroke-opacity:1"
         d="m 27.279306,225.08358 4.9108,-5.3861 c -1.51824,0.49847 -2.88879,1.14464 -3.5664,2.48374 -0.98011,1.11945 -0.90569,1.9376 -1.3444,2.90236 z"
         id="path4741"
         inkscape:connector-curvature="0"
         sodipodi:nodetypes="cccc" />
      <path
         sodipodi:nodetypes="cccc"
         inkscape:connector-curvature="0"
         id="path4743"
         d="m 27.279306,225.08358 -6.37557,-6.91456 c 1.97109,0.63993 3.75044,1.46947 4.63017,3.18858 1.27245,1.43711 1.17583,2.48744 1.7454,3.72598 z"
         style="fill:#67b51f;fill-opacity:1;fill-rule:evenodd;stroke:none;stroke-width:0.34157881px;stroke-linecap:butt;stroke-linejoin:miter;stroke-opacity:1" />
      <path
         style="fill:#5f33ff;fill-opacity:1;fill-rule:evenodd;stroke:none;stroke-width:0.34157881px;stroke-linecap:butt;stroke-linejoin:miter;stroke-opacity:1"
         d="m 27.279306,225.08358 -0.50367,-9.39177 c 1.11061,1.74964 1.95261,3.52313 1.53439,5.40843 0.0641,1.91842 -0.67992,2.66602 -1.03072,3.98334 z"
         id="path4745"
         inkscape:connector-curvature="0"
         sodipodi:nodetypes="cccc" />
      <path
         sodipodi:nodetypes="cccc"
         inkscape:connector-curvature="0"
         id="path4747"
         d="m 27.279306,225.08358 8.9505,-2.88921 c -2.03115,-0.41125 -3.98848,-0.56314 -5.59944,0.5018 -1.81441,0.62638 -2.24639,1.58859 -3.35106,2.38741 z"
         style="fill:#bf39e9;fill-opacity:1;fill-rule:evenodd;stroke:none;stroke-width:0.34157881px;stroke-linecap:butt;stroke-linejoin:miter;stroke-opacity:1" />
      <path
         sodipodi:nodetypes="cccc"
         inkscape:connector-curvature="0"
         id="path4749"
         d="m 20.197796,281.09972 -3.23646,6.53082 c 1.32209,-0.89755 2.46152,-1.89637 2.74389,-3.37035 0.63371,-1.34618 0.3367,-2.11216 0.49257,-3.16047 z"
         style="fill:#fff400;fill-opacity:1;fill-rule:evenodd;stroke:none;stroke-width:0.26458332px;stroke-linecap:butt;stroke-linejoin:miter;stroke-opacity:1" />
      <path
         style="fill:#67b51f;fill-opacity:1;fill-rule:evenodd;stroke:none;stroke-width:0.34157881px;stroke-linecap:butt;stroke-linejoin:miter;stroke-opacity:1"
         d="m 20.197796,281.09972 8.03412,4.88998 c -2.07112,-0.072 -4.01016,-0.37909 -5.32955,-1.78922 -1.6192,-1.03083 -1.81576,-2.06713 -2.70457,-3.10076 z"
         id="path4751"
         inkscape:connector-curvature="0"
         sodipodi:nodetypes="cccc" />
      <path
         sodipodi:nodetypes="cccc"
         inkscape:connector-curvature="0"
         id="path4753"
         d="m 20.197796,281.09972 3.0722,8.88936 c -1.54975,-1.37587 -2.84786,-2.84865 -2.96535,-4.7762 -0.59028,-1.82649 -0.0811,-2.75017 -0.10685,-4.11316 z"
         style="fill:#5f33ff;fill-opacity:1;fill-rule:evenodd;stroke:none;stroke-width:0.34157881px;stroke-linecap:butt;stroke-linejoin:miter;stroke-opacity:1" />
      <path
         style="fill:#bf39e9;fill-opacity:1;fill-rule:evenodd;stroke:none;stroke-width:0.34157881px;stroke-linecap:butt;stroke-linejoin:miter;stroke-opacity:1"
         d="m 20.197796,281.09972 -7.8078,5.24379 c 2.06583,-0.16439 3.98923,-0.55775 5.24436,-2.02538 1.57155,-1.10212 1.72166,-2.14612 2.56344,-3.21841 z"
         id="path4755"
         inkscape:connector-curvature="0"
         sodipodi:nodetypes="cccc" />
      <path
         style="fill:#bf39e9;fill-opacity:1;fill-rule:evenodd;stroke:none;stroke-width:0.2090936px;stroke-linecap:butt;stroke-linejoin:miter;stroke-opacity:1"
         d="m 36.092916,262.62865 4.2702,-0.18983 -0.85404,-2.08802 -3.41616,0.75928 z"
         id="path4757"
         inkscape:connector-curvature="0" />
      <path
         inkscape:connector-curvature="0"
         id="path4759"
         d="m 40.275266,258.08288 4.11206,1.16688 -0.15178,-2.25081 -3.48125,-0.35711 z"
         style="fill:#fff400;fill-opacity:1;fill-rule:evenodd;stroke:none;stroke-width:0.2090936px;stroke-linecap:butt;stroke-linejoin:miter;stroke-opacity:1" />
      <path
         style="fill:#67b51f;fill-opacity:1;fill-rule:evenodd;stroke:none;stroke-width:0.2090936px;stroke-linecap:butt;stroke-linejoin:miter;stroke-opacity:1"
         d="m 46.007326,262.44143 -3.69932,-2.14143 -0.40589,2.21911 3.2868,1.20149 z"
         id="path4761"
         inkscape:connector-curvature="0" />
      <path
         inkscape:connector-curvature="0"
         id="path4763"
         d="m 49.806956,255.91559 -2.19971,-3.66497 -1.4297,1.74503 2.29393,2.64282 z"
         style="fill:#5f33ff;fill-opacity:1;fill-rule:evenodd;stroke:none;stroke-width:0.2090936px;stroke-linecap:butt;stroke-linejoin:miter;stroke-opacity:1"
         inkscape:transform-center-x="6.3739345"
         inkscape:transform-center-y="0.68095" />
      <path
         inkscape:transform-center-y="0.68095"
         inkscape:transform-center-x="6.3739345"
         style="fill:#5f33ff;fill-opacity:1;fill-rule:evenodd;stroke:none;stroke-width:0.2090936px;stroke-linecap:butt;stroke-linejoin:miter;stroke-opacity:1"
         d="m 49.806956,255.91559 -2.19971,-3.66497 -1.4297,1.74503 2.29393,2.64282 z"
         id="path4765"
         inkscape:connector-curvature="0" />
      <path
         style="fill:#bf39e9;fill-opacity:1;fill-rule:evenodd;stroke:none;stroke-width:0.2090936px;stroke-linecap:butt;stroke-linejoin:miter;stroke-opacity:1"
         d="m 48.425406,258.60796 0.15031,4.27178 2.09582,-0.83469 -0.72762,-3.42303 z"
         id="path4767"
         inkscape:connector-curvature="0" />
      <path
         inkscape:connector-curvature="0"
         id="path4769"
         d="m 44.193936,266.60438 3.40594,2.58267 0.67732,-2.15184 -3.11288,-1.59892 z"
         style="fill:#fff400;fill-opacity:1;fill-rule:evenodd;stroke:none;stroke-width:0.2090936px;stroke-linecap:butt;stroke-linejoin:miter;stroke-opacity:1" />
      <path
         style="fill:#67b51f;fill-opacity:1;fill-rule:evenodd;stroke:none;stroke-width:0.2090936px;stroke-linecap:butt;stroke-linejoin:miter;stroke-opacity:1"
         d="m 52.851976,268.02053 -1.64918,-3.94345 -1.66602,1.52104 1.88956,2.94552 z"
         id="path4771"
         inkscape:connector-curvature="0" />
      <path
         inkscape:connector-curvature="0"
         id="path4773"
         d="m 44.667256,269.70843 -3.38394,-2.61143 -0.69553,2.14602 3.09922,1.62524 z"
         style="fill:#5f33ff;fill-opacity:1;fill-rule:evenodd;stroke:none;stroke-width:0.2090936px;stroke-linecap:butt;stroke-linejoin:miter;stroke-opacity:1" />
      <path
         style="fill:#bf39e9;fill-opacity:1;fill-rule:evenodd;stroke:none;stroke-width:0.2090936px;stroke-linecap:butt;stroke-linejoin:miter;stroke-opacity:1"
         d="m 50.204596,269.31245 -3.44388,2.53186 1.87074,1.26075 2.41741,-2.53035 z"
         id="path4775"
         inkscape:connector-curvature="0" />
      <path
         inkscape:connector-curvature="0"
         id="path4777"
         d="m 55.097076,269.02275 -1.77772,3.8872 2.24775,0.19174 0.88158,-3.38665 z"
         style="fill:#fff400;fill-opacity:1;fill-rule:evenodd;stroke:none;stroke-width:0.2090936px;stroke-linecap:butt;stroke-linejoin:miter;stroke-opacity:1" />
      <path
         style="fill:#67b51f;fill-opacity:1;fill-rule:evenodd;stroke:none;stroke-width:0.2090936px;stroke-linecap:butt;stroke-linejoin:miter;stroke-opacity:1"
         d="m 54.697506,262.02937 1.43503,4.02633 1.7453,-1.42937 -1.72865,-3.04275 z"
         id="path4779"
         inkscape:connector-curvature="0" />
      <path
         inkscape:connector-curvature="0"
         id="path4781"
         d="m 53.254336,255.48355 1.43503,4.02633 1.7453,-1.42937 -1.72865,-3.04275 z"
         style="fill:#5f33ff;fill-opacity:1;fill-rule:evenodd;stroke:none;stroke-width:0.2090936px;stroke-linecap:butt;stroke-linejoin:miter;stroke-opacity:1" />
    </g>
    <rect
       y="30.438227"
       x="65.737816"
       height="12.576221"
       width="72.777161"
       id="rect4783"
       style="opacity:1;fill:#bf39e9;fill-opacity:1;stroke:none;stroke-width:0.16469739;stroke-opacity:1" />
    <text
       transform="scale(1.2342039,0.8102389)"
       id="text4787"
       y="50.639492"
       x="54.938042"
       style="font-style:normal;font-variant:normal;font-weight:normal;font-stretch:normal;font-size:13.9682px;line-height:125%;font-family:Iosevka;-inkscape-font-specification:'Iosevka, Normal';font-variant-ligatures:normal;font-variant-caps:normal;font-variant-numeric:normal;font-feature-settings:normal;text-align:start;letter-spacing:0px;word-spacing:0px;writing-mode:lr-tb;text-anchor:start;fill:#ffffff;fill-opacity:1;stroke:none;stroke-width:0.349215px;stroke-linecap:butt;stroke-linejoin:miter;stroke-opacity:1"
       xml:space="preserve"><tspan
         style="font-style:normal;font-variant:normal;font-weight:normal;font-stretch:normal;font-size:13.9682px;font-family:Iosevka;-inkscape-font-specification:'Iosevka, Normal';font-variant-ligatures:normal;font-variant-caps:normal;font-variant-numeric:normal;font-feature-settings:normal;text-align:start;writing-mode:lr-tb;text-anchor:start;fill:#ffffff;fill-opacity:1;stroke-width:0.349215px"
         y="50.639492"
         x="54.938042"
         id="tspan4785"
         sodipodi:role="line">ETHEREUM</tspan><tspan
         id="tspan4789"
         style="font-style:normal;font-variant:normal;font-weight:normal;font-stretch:normal;font-size:13.9682px;font-family:Iosevka;-inkscape-font-specification:'Iosevka, Normal';font-variant-ligatures:normal;font-variant-caps:normal;font-variant-numeric:normal;font-feature-settings:normal;text-align:start;writing-mode:lr-tb;text-anchor:start;fill:#ffffff;fill-opacity:1;stroke-width:0.349215px"
         y="68.099754"
         x="54.938042"
         sodipodi:role="line">GUADALAJARA</tspan></text>
    <g
       id="g1136">
      <path
         inkscape:connector-curvature="0"
         id="path4793"
         d="m 39.468817,12.336896 -16.21173,27.55992 16.21173,10.08729 16.93224,-10.08729 z"
         style="fill:#bf39e9;fill-opacity:1;fill-rule:evenodd;stroke:none;stroke-width:0.26458332px;stroke-linecap:butt;stroke-linejoin:miter;stroke-opacity:1" />
      <path
         inkscape:connector-curvature="0"
         id="path4795"
         d="m 39.468817,12.336896 -3.75915,6.04982 h 7.61633 z"
         style="fill:#fff400;fill-opacity:1;fill-rule:evenodd;stroke:none;stroke-width:0.26458332px;stroke-linecap:butt;stroke-linejoin:miter;stroke-opacity:1" />
      <path
         inkscape:connector-curvature="0"
         id="path4797"
         d="m 35.709667,18.386716 h 7.61633 l 3.47072,5.49532 h -14.36496 z"
         style="fill:#67b51f;fill-opacity:1;fill-rule:evenodd;stroke:none;stroke-width:0.26458332px;stroke-linecap:butt;stroke-linejoin:miter;stroke-opacity:1" />
      <path
         inkscape:connector-curvature="0"
         id="path4799"
         d="m 32.431757,23.882036 -5.59173,9.64091 13.11164,4.33842 12.82242,-4.33842 -5.97737,-9.64091 z"
         style="fill:#5f33ff;fill-opacity:1;fill-rule:evenodd;stroke:none;stroke-width:0.26458332px;stroke-linecap:butt;stroke-linejoin:miter;stroke-opacity:1" />
      <path
         sodipodi:nodetypes="cccc"
         inkscape:connector-curvature="0"
         id="path4801"
         d="m 39.468817,12.336896 4.9108,-5.3861001 c -1.51824,0.49847 -2.88879,1.14464 -3.5664,2.48374 -0.98011,1.1194501 -0.90569,1.9376001 -1.3444,2.9023601 z"
         style="fill:#fff400;fill-opacity:1;fill-rule:evenodd;stroke:none;stroke-width:0.26458332px;stroke-linecap:butt;stroke-linejoin:miter;stroke-opacity:1" />
      <path
         style="fill:#67b51f;fill-opacity:1;fill-rule:evenodd;stroke:none;stroke-width:0.34157881px;stroke-linecap:butt;stroke-linejoin:miter;stroke-opacity:1"
         d="m 39.468817,12.336896 -6.37557,-6.9145601 c 1.97109,0.63993 3.75044,1.46946 4.63017,3.18858 1.27245,1.4371101 1.17583,2.4874401 1.7454,3.7259801 z"
         id="path4803"
         inkscape:connector-curvature="0"
         sodipodi:nodetypes="cccc" />
      <path
         sodipodi:nodetypes="cccc"
         inkscape:connector-curvature="0"
         id="path4805"
         d="m 39.468817,12.336896 -0.50367,-9.3917701 c 1.11061,1.74964 1.95261,3.52313 1.53439,5.40843 0.0641,1.9184201 -0.67992,2.6660201 -1.03072,3.9833401 z"
         style="fill:#5f33ff;fill-opacity:1;fill-rule:evenodd;stroke:none;stroke-width:0.34157881px;stroke-linecap:butt;stroke-linejoin:miter;stroke-opacity:1" />
      <path
         style="fill:#bf39e9;fill-opacity:1;fill-rule:evenodd;stroke:none;stroke-width:0.34157881px;stroke-linecap:butt;stroke-linejoin:miter;stroke-opacity:1"
         d="m 39.468817,12.336896 8.9505,-2.8892101 c -2.03115,-0.41125 -3.98848,-0.56314 -5.59944,0.5018 -1.81441,0.6263801 -2.24639,1.5885901 -3.35106,2.3874101 z"
         id="path4807"
         inkscape:connector-curvature="0"
         sodipodi:nodetypes="cccc" />
      <path
         inkscape:connector-curvature="0"
         id="path4815"
         d="M 39.268282,68.267715 23.37105,44.964532 39.570174,55.300592 56.678822,46.022723 Z"
         style="fill:#bf39e9;fill-opacity:1;fill-rule:evenodd;stroke:none;stroke-width:0.26458332px;stroke-linecap:butt;stroke-linejoin:miter;stroke-opacity:1" />
      <path
         inkscape:connector-curvature="0"
         id="path4817"
         d="m 39.268282,68.267715 -3.649404,-5.27467 7.418376,0.275826 z"
         style="fill:#fff400;fill-opacity:1;fill-rule:evenodd;stroke:none;stroke-width:0.26710239px;stroke-linecap:butt;stroke-linejoin:miter;stroke-opacity:1" />
      <path
         inkscape:connector-curvature="0"
         id="path4819"
         d="m 35.618878,62.993045 7.418376,0.275826 3.636691,-4.399145 -14.536974,-0.829924 z"
         style="fill:#67b51f;fill-opacity:1;fill-rule:evenodd;stroke:none;stroke-width:0.26458332px;stroke-linecap:butt;stroke-linejoin:miter;stroke-opacity:1" />
      <path
         inkscape:connector-curvature="0"
         id="path4821"
         d="m 32.136971,58.039802 14.536974,0.829924 7.091452,-9.094457 -14.852202,7.648198 -12.894442,-8.679874 z"
         style="fill:#5f33ff;fill-opacity:1;fill-rule:evenodd;stroke:none;stroke-width:0.26458332px;stroke-linecap:butt;stroke-linejoin:miter;stroke-opacity:1" />
      <path
         style="fill:#fff400;fill-opacity:1;fill-rule:evenodd;stroke:none;stroke-width:0.26458332px;stroke-linecap:butt;stroke-linejoin:miter;stroke-opacity:1"
         d="m 39.268282,68.267715 -1.480516,7.136834 c 1.052277,-1.202596 1.902222,-2.457002 1.802837,-3.954491 0.272846,-1.462654 -0.208142,-2.128674 -0.322321,-3.182343 z"
         id="path4823"
         inkscape:connector-curvature="0"
         sodipodi:nodetypes="cccc" />
      <path
         sodipodi:nodetypes="cccc"
         inkscape:connector-curvature="0"
         id="path4825"
         d="m 39.268282,68.267715 9.009283,2.700345 c -2.022062,0.453866 -3.975752,0.646896 -5.608744,-0.383935 -1.827185,-0.588058 -2.279314,-1.541015 -3.400539,-2.31641 z"
         style="fill:#67b51f;fill-opacity:1;fill-rule:evenodd;stroke:none;stroke-width:0.34157881px;stroke-linecap:butt;stroke-linejoin:miter;stroke-opacity:1" />
      <path
         style="fill:#5f33ff;fill-opacity:1;fill-rule:evenodd;stroke:none;stroke-width:0.34157881px;stroke-linecap:butt;stroke-linejoin:miter;stroke-opacity:1"
         d="m 39.268282,68.267715 5.219447,7.824097 c -1.847209,-0.939453 -3.475441,-2.036269 -4.076357,-3.871517 -1.032806,-1.617971 -0.773645,-2.640366 -1.14309,-3.95258 z"
         id="path4827"
         inkscape:connector-curvature="0"
         sodipodi:nodetypes="cccc" />
      <path
         sodipodi:nodetypes="cccc"
         inkscape:connector-curvature="0"
         id="path4829"
         d="m 39.268282,68.267715 -6.228733,7.047118 c 1.957184,-0.681238 3.718689,-1.548012 4.562079,-3.28525 1.241924,-1.46358 1.123262,-2.511622 1.666654,-3.761868 z"
         style="fill:#bf39e9;fill-opacity:1;fill-rule:evenodd;stroke:none;stroke-width:0.34157881px;stroke-linecap:butt;stroke-linejoin:miter;stroke-opacity:1" />
    </g>
    <rect
       style="opacity:1;fill:#bf39e9;fill-opacity:1;stroke:none;stroke-width:0.143852;stroke-opacity:1"
       id="rect4843"
       width="55.52071"
       height="12.576221"
       x="12.078865"
       y="168.96397" />
    <text
       xml:space="preserve"
       style="font-style:normal;font-variant:normal;font-weight:normal;font-stretch:normal;font-size:13.9682px;line-height:125%;font-family:Iosevka;-inkscape-font-specification:'Iosevka, Normal';font-variant-ligatures:normal;font-variant-caps:normal;font-variant-numeric:normal;font-feature-settings:normal;text-align:start;letter-spacing:0px;word-spacing:0px;writing-mode:lr-tb;text-anchor:start;fill:#ffffff;fill-opacity:1;stroke:none;stroke-width:0.349215px;stroke-linecap:butt;stroke-linejoin:miter;stroke-opacity:1"
       x="11.46147"
       y="221.60851"
       id="text4849"
       transform="scale(1.2342039,0.8102389)"><tspan
         sodipodi:role="line"
         x="11.46147"
         y="221.60851"
         style="font-style:normal;font-variant:normal;font-weight:normal;font-stretch:normal;font-size:13.9682px;font-family:Iosevka;-inkscape-font-specification:'Iosevka, Normal';font-variant-ligatures:normal;font-variant-caps:normal;font-variant-numeric:normal;font-feature-settings:normal;text-align:start;writing-mode:lr-tb;text-anchor:start;fill:#ffffff;fill-opacity:1;stroke-width:0.349215px"
         id="tspan4847">ETHGDL</tspan></text>
    <g
       id="g1118">
      <path
         style="fill:#bf39e9;fill-opacity:1;fill-rule:evenodd;stroke:none;stroke-width:0.26458332px;stroke-linecap:butt;stroke-linejoin:miter;stroke-opacity:1"
         d="m 38.978101,99.19355 -16.21173,27.55992 16.21173,10.08729 16.93224,-10.08729 z"
         id="path4851"
         inkscape:connector-curvature="0" />
      <path
         style="fill:#fff400;fill-opacity:1;fill-rule:evenodd;stroke:none;stroke-width:0.26458332px;stroke-linecap:butt;stroke-linejoin:miter;stroke-opacity:1"
         d="m 38.978101,99.19355 -3.75915,6.04982 h 7.61633 z"
         id="path4853"
         inkscape:connector-curvature="0" />
      <path
         style="fill:#67b51f;fill-opacity:1;fill-rule:evenodd;stroke:none;stroke-width:0.26458332px;stroke-linecap:butt;stroke-linejoin:miter;stroke-opacity:1"
         d="m 35.218951,105.24337 h 7.61633 l 3.47072,5.49532 h -14.36496 z"
         id="path4855"
         inkscape:connector-curvature="0" />
      <path
         style="fill:#5f33ff;fill-opacity:1;fill-rule:evenodd;stroke:none;stroke-width:0.26458332px;stroke-linecap:butt;stroke-linejoin:miter;stroke-opacity:1"
         d="m 31.941041,110.73869 -5.59173,9.64091 13.11164,4.33842 12.82242,-4.33842 -5.97737,-9.64091 z"
         id="path4857"
         inkscape:connector-curvature="0" />
      <path
         style="fill:#fff400;fill-opacity:1;fill-rule:evenodd;stroke:none;stroke-width:0.26458332px;stroke-linecap:butt;stroke-linejoin:miter;stroke-opacity:1"
         d="m 38.978101,99.19355 4.9108,-5.3861 c -1.51824,0.49847 -2.88879,1.14464 -3.5664,2.48374 -0.98011,1.11945 -0.90569,1.9376 -1.3444,2.90236 z"
         id="path4859"
         inkscape:connector-curvature="0"
         sodipodi:nodetypes="cccc" />
      <path
         sodipodi:nodetypes="cccc"
         inkscape:connector-curvature="0"
         id="path4861"
         d="m 38.978101,99.19355 -6.37557,-6.91456 c 1.97109,0.63993 3.75044,1.46946 4.63017,3.18858 1.27245,1.43711 1.17583,2.48744 1.7454,3.72598 z"
         style="fill:#67b51f;fill-opacity:1;fill-rule:evenodd;stroke:none;stroke-width:0.34157881px;stroke-linecap:butt;stroke-linejoin:miter;stroke-opacity:1" />
      <path
         style="fill:#5f33ff;fill-opacity:1;fill-rule:evenodd;stroke:none;stroke-width:0.34157881px;stroke-linecap:butt;stroke-linejoin:miter;stroke-opacity:1"
         d="m 38.978101,99.19355 -0.50367,-9.39177 c 1.11061,1.74964 1.95261,3.52313 1.53439,5.40843 0.0641,1.91842 -0.67992,2.66602 -1.03072,3.98334 z"
         id="path4863"
         inkscape:connector-curvature="0"
         sodipodi:nodetypes="cccc" />
      <path
         sodipodi:nodetypes="cccc"
         inkscape:connector-curvature="0"
         id="path4865"
         d="m 38.978101,99.19355 8.9505,-2.88921 c -2.03115,-0.41125 -3.98848,-0.56314 -5.59944,0.5018 -1.81441,0.62638 -2.24639,1.58859 -3.35106,2.38741 z"
         style="fill:#bf39e9;fill-opacity:1;fill-rule:evenodd;stroke:none;stroke-width:0.34157881px;stroke-linecap:butt;stroke-linejoin:miter;stroke-opacity:1" />
      <path
         style="fill:#bf39e9;fill-opacity:1;fill-rule:evenodd;stroke:none;stroke-width:0.26458332px;stroke-linecap:butt;stroke-linejoin:miter;stroke-opacity:1"
         d="m 38.777566,155.12437 -15.897232,-23.30318 16.199124,10.33606 17.108648,-9.27787 z"
         id="path4867"
         inkscape:connector-curvature="0" />
      <path
         style="fill:#fff400;fill-opacity:1;fill-rule:evenodd;stroke:none;stroke-width:0.26710239px;stroke-linecap:butt;stroke-linejoin:miter;stroke-opacity:1"
         d="m 38.777566,155.12437 -3.649404,-5.27467 7.418376,0.27582 z"
         id="path4869"
         inkscape:connector-curvature="0" />
      <path
         style="fill:#67b51f;fill-opacity:1;fill-rule:evenodd;stroke:none;stroke-width:0.26458332px;stroke-linecap:butt;stroke-linejoin:miter;stroke-opacity:1"
         d="m 35.128162,149.8497 7.418376,0.27582 3.636691,-4.39914 -14.536974,-0.82992 z"
         id="path4871"
         inkscape:connector-curvature="0" />
      <path
         style="fill:#5f33ff;fill-opacity:1;fill-rule:evenodd;stroke:none;stroke-width:0.26458332px;stroke-linecap:butt;stroke-linejoin:miter;stroke-opacity:1"
         d="m 31.646255,144.89646 14.536974,0.82992 7.091452,-9.09446 -14.852202,7.6482 -12.894442,-8.67987 z"
         id="path4873"
         inkscape:connector-curvature="0" />
      <path
         sodipodi:nodetypes="cccc"
         inkscape:connector-curvature="0"
         id="path4875"
         d="m 38.777566,155.12437 -1.480516,7.13683 c 1.052277,-1.20259 1.902222,-2.457 1.802837,-3.95449 0.272846,-1.46265 -0.208142,-2.12867 -0.322321,-3.18234 z"
         style="fill:#fff400;fill-opacity:1;fill-rule:evenodd;stroke:none;stroke-width:0.26458332px;stroke-linecap:butt;stroke-linejoin:miter;stroke-opacity:1" />
      <path
         style="fill:#67b51f;fill-opacity:1;fill-rule:evenodd;stroke:none;stroke-width:0.34157881px;stroke-linecap:butt;stroke-linejoin:miter;stroke-opacity:1"
         d="m 38.777566,155.12437 9.009283,2.70034 c -2.022062,0.45387 -3.975752,0.6469 -5.608744,-0.38393 -1.827185,-0.58806 -2.279314,-1.54102 -3.400539,-2.31641 z"
         id="path4877"
         inkscape:connector-curvature="0"
         sodipodi:nodetypes="cccc" />
      <path
         sodipodi:nodetypes="cccc"
         inkscape:connector-curvature="0"
         id="path4879"
         d="m 38.777566,155.12437 5.219447,7.8241 c -1.847209,-0.93946 -3.475441,-2.03627 -4.076357,-3.87152 -1.032806,-1.61797 -0.773645,-2.64037 -1.14309,-3.95258 z"
         style="fill:#5f33ff;fill-opacity:1;fill-rule:evenodd;stroke:none;stroke-width:0.34157881px;stroke-linecap:butt;stroke-linejoin:miter;stroke-opacity:1" />
      <path
         style="fill:#bf39e9;fill-opacity:1;fill-rule:evenodd;stroke:none;stroke-width:0.34157881px;stroke-linecap:butt;stroke-linejoin:miter;stroke-opacity:1"
         d="m 38.777566,155.12437 -6.228733,7.04712 c 1.957184,-0.68124 3.718689,-1.54802 4.562079,-3.28525 1.241924,-1.46358 1.123262,-2.51163 1.666654,-3.76187 z"
         id="path4881"
         inkscape:connector-curvature="0"
         sodipodi:nodetypes="cccc" />
    </g>
    <text
       transform="scale(1.0284001,0.97238418)"
       id="text4887"
       y="190.42502"
       x="12.424457"
       style="font-style:normal;font-variant:normal;font-weight:normal;font-stretch:normal;font-size:4.02903px;line-height:125%;font-family:sans-serif;-inkscape-font-specification:'sans-serif, Normal';font-variant-ligatures:normal;font-variant-caps:normal;font-variant-numeric:normal;font-feature-settings:normal;text-align:start;letter-spacing:0px;word-spacing:0px;writing-mode:lr-tb;text-anchor:start;fill:#000000;fill-opacity:1;stroke:none;stroke-width:0.100726px;stroke-linecap:butt;stroke-linejoin:miter;stroke-opacity:1"
       xml:space="preserve"><tspan
         style="stroke-width:0.100726px"
         y="190.42502"
         x="12.424457"
         id="tspan4885"
         sodipodi:role="line">ETHEREUM GUADALAJARA</tspan></text>
    <g
       id="g1154">
      <path
         inkscape:connector-curvature="0"
         id="path4891"
         d="m 158.60706,218.82251 -16.21173,27.55992 16.21173,10.08729 16.93224,-10.08729 z"
         style="fill:#bf39e9;fill-opacity:1;fill-rule:evenodd;stroke:none;stroke-width:0.26458332px;stroke-linecap:butt;stroke-linejoin:miter;stroke-opacity:1" />
      <path
         inkscape:connector-curvature="0"
         id="path4893"
         d="m 158.60706,218.82251 -3.75915,6.04982 h 7.61633 z"
         style="fill:#fff400;fill-opacity:1;fill-rule:evenodd;stroke:none;stroke-width:0.26458332px;stroke-linecap:butt;stroke-linejoin:miter;stroke-opacity:1" />
      <path
         inkscape:connector-curvature="0"
         id="path4895"
         d="m 154.84791,224.87233 h 7.61633 l 3.47072,5.49532 H 151.57 Z"
         style="fill:#67b51f;fill-opacity:1;fill-rule:evenodd;stroke:none;stroke-width:0.26458332px;stroke-linecap:butt;stroke-linejoin:miter;stroke-opacity:1" />
      <path
         inkscape:connector-curvature="0"
         id="path4897"
         d="m 151.57,230.36765 -5.59173,9.64091 13.11164,4.33842 12.82242,-4.33842 -5.97737,-9.64091 z"
         style="fill:#5f33ff;fill-opacity:1;fill-rule:evenodd;stroke:none;stroke-width:0.26458332px;stroke-linecap:butt;stroke-linejoin:miter;stroke-opacity:1" />
      <path
         sodipodi:nodetypes="cccc"
         inkscape:connector-curvature="0"
         id="path4899"
         d="m 158.60706,218.82251 4.9108,-5.3861 c -1.51824,0.49847 -2.88879,1.14464 -3.5664,2.48374 -0.98011,1.11945 -0.90569,1.9376 -1.3444,2.90236 z"
         style="fill:#fff400;fill-opacity:1;fill-rule:evenodd;stroke:none;stroke-width:0.26458332px;stroke-linecap:butt;stroke-linejoin:miter;stroke-opacity:1" />
      <path
         style="fill:#67b51f;fill-opacity:1;fill-rule:evenodd;stroke:none;stroke-width:0.34157881px;stroke-linecap:butt;stroke-linejoin:miter;stroke-opacity:1"
         d="m 158.60706,218.82251 -6.37557,-6.91456 c 1.97109,0.63993 3.75044,1.46946 4.63017,3.18858 1.27245,1.43711 1.17583,2.48744 1.7454,3.72598 z"
         id="path4901"
         inkscape:connector-curvature="0"
         sodipodi:nodetypes="cccc" />
      <path
         sodipodi:nodetypes="cccc"
         inkscape:connector-curvature="0"
         id="path4903"
         d="m 158.60706,218.82251 -0.50367,-9.39177 c 1.11061,1.74964 1.95261,3.52313 1.53439,5.40843 0.0641,1.91842 -0.67992,2.66602 -1.03072,3.98334 z"
         style="fill:#5f33ff;fill-opacity:1;fill-rule:evenodd;stroke:none;stroke-width:0.34157881px;stroke-linecap:butt;stroke-linejoin:miter;stroke-opacity:1" />
      <path
         style="fill:#bf39e9;fill-opacity:1;fill-rule:evenodd;stroke:none;stroke-width:0.34157881px;stroke-linecap:butt;stroke-linejoin:miter;stroke-opacity:1"
         d="m 158.60706,218.82251 8.9505,-2.88921 c -2.03115,-0.41125 -3.98848,-0.56314 -5.59944,0.5018 -1.81441,0.62638 -2.24639,1.58859 -3.35106,2.38741 z"
         id="path4905"
         inkscape:connector-curvature="0"
         sodipodi:nodetypes="cccc" />
      <path
         inkscape:connector-curvature="0"
         id="path4907"
         d="m 158.40653,274.75333 -15.89724,-23.30318 16.19913,10.33606 17.10865,-9.27787 z"
         style="fill:#bf39e9;fill-opacity:1;fill-rule:evenodd;stroke:none;stroke-width:0.26458332px;stroke-linecap:butt;stroke-linejoin:miter;stroke-opacity:1" />
      <path
         inkscape:connector-curvature="0"
         id="path4909"
         d="m 158.40653,274.75333 -3.64941,-5.27467 7.41838,0.27582 z"
         style="fill:#fff400;fill-opacity:1;fill-rule:evenodd;stroke:none;stroke-width:0.26710239px;stroke-linecap:butt;stroke-linejoin:miter;stroke-opacity:1" />
      <path
         inkscape:connector-curvature="0"
         id="path4911"
         d="m 154.75712,269.47866 7.41838,0.27582 3.63669,-4.39914 -14.53698,-0.82992 z"
         style="fill:#67b51f;fill-opacity:1;fill-rule:evenodd;stroke:none;stroke-width:0.26458332px;stroke-linecap:butt;stroke-linejoin:miter;stroke-opacity:1" />
      <path
         inkscape:connector-curvature="0"
         id="path4913"
         d="m 151.27521,264.52542 14.53698,0.82992 7.09145,-9.09446 -14.8522,7.6482 -12.89444,-8.67987 z"
         style="fill:#5f33ff;fill-opacity:1;fill-rule:evenodd;stroke:none;stroke-width:0.26458332px;stroke-linecap:butt;stroke-linejoin:miter;stroke-opacity:1" />
      <path
         style="fill:#fff400;fill-opacity:1;fill-rule:evenodd;stroke:none;stroke-width:0.26458332px;stroke-linecap:butt;stroke-linejoin:miter;stroke-opacity:1"
         d="m 158.40653,274.75333 -1.48052,7.13683 c 1.05228,-1.20259 1.90222,-2.457 1.80284,-3.95449 0.27284,-1.46265 -0.20815,-2.12867 -0.32232,-3.18234 z"
         id="path4915"
         inkscape:connector-curvature="0"
         sodipodi:nodetypes="cccc" />
      <path
         sodipodi:nodetypes="cccc"
         inkscape:connector-curvature="0"
         id="path4917"
         d="m 158.40653,274.75333 9.00928,2.70034 c -2.02206,0.45387 -3.97575,0.6469 -5.60875,-0.38393 -1.82718,-0.58806 -2.27931,-1.54102 -3.40053,-2.31641 z"
         style="fill:#67b51f;fill-opacity:1;fill-rule:evenodd;stroke:none;stroke-width:0.34157881px;stroke-linecap:butt;stroke-linejoin:miter;stroke-opacity:1" />
      <path
         style="fill:#5f33ff;fill-opacity:1;fill-rule:evenodd;stroke:none;stroke-width:0.34157881px;stroke-linecap:butt;stroke-linejoin:miter;stroke-opacity:1"
         d="m 158.40653,274.75333 5.21944,7.8241 c -1.84721,-0.93946 -3.47544,-2.03627 -4.07635,-3.87152 -1.03281,-1.61797 -0.77365,-2.64037 -1.14309,-3.95258 z"
         id="path4919"
         inkscape:connector-curvature="0"
         sodipodi:nodetypes="cccc" />
      <path
         sodipodi:nodetypes="cccc"
         inkscape:connector-curvature="0"
         id="path4921"
         d="m 158.40653,274.75333 -6.22874,7.04712 c 1.95719,-0.68124 3.71869,-1.54802 4.56208,-3.28525 1.24193,-1.46358 1.12326,-2.51163 1.66666,-3.76187 z"
         style="fill:#bf39e9;fill-opacity:1;fill-rule:evenodd;stroke:none;stroke-width:0.34157881px;stroke-linecap:butt;stroke-linejoin:miter;stroke-opacity:1" />
    </g>
    <rect
       inkscape:export-ydpi="101.6"
       inkscape:export-xdpi="101.6"
       y="207.60434"
       x="121.14314"
       height="80"
       width="75"
       id="rect1069"
       style="opacity:1;fill:#000000;fill-opacity:0;stroke:none;stroke-width:0.24556257;stroke-opacity:1" />
  </g>
</svg>
