<?xml version="1.0" encoding="UTF-8" standalone="no"?>
<svg
   xmlns:dc="http://purl.org/dc/elements/1.1/"
   xmlns:cc="http://creativecommons.org/ns#"
   xmlns:rdf="http://www.w3.org/1999/02/22-rdf-syntax-ns#"
   xmlns:svg="http://www.w3.org/2000/svg"
   xmlns="http://www.w3.org/2000/svg"
   xmlns:xlink="http://www.w3.org/1999/xlink"
   xmlns:sodipodi="http://sodipodi.sourceforge.net/DTD/sodipodi-0.dtd"
   xmlns:inkscape="http://www.inkscape.org/namespaces/inkscape"
   inkscape:version="1.0.1 (c497b03c, 2020-09-10)"
   sodipodi:docname="ethereum-gauadalajara-logo-v2_1.svg"
   id="svg1402"
   version="1.1"
   viewBox="0 0 52.387499 66.675002"
   height="252"
   width="198">
  <defs
     id="defs1396">
    <linearGradient
       inkscape:collect="always"
       xlink:href="#linearGradient2640"
       id="linearGradient1210"
       gradientUnits="userSpaceOnUse"
       gradientTransform="scale(0.26458333)"
       x1="339.4043"
       y1="254.52344"
       x2="404.70312"
       y2="188.55469" />
    <linearGradient
       id="linearGradient2640"
       inkscape:collect="always">
      <stop
         id="stop2636"
         offset="0"
         style="stop-color:#660080;stop-opacity:1;" />
      <stop
         id="stop2638"
         offset="1"
         style="stop-color:#f6d4ff;stop-opacity:1" />
    </linearGradient>
    <linearGradient
       inkscape:collect="always"
       xlink:href="#linearGradient2646"
       id="linearGradient1212"
       gradientUnits="userSpaceOnUse"
       x1="89.80072"
       y1="74.097282"
       x2="98.123726"
       y2="62.434948" />
    <linearGradient
       id="linearGradient2646"
       inkscape:collect="always">
      <stop
         id="stop2642"
         offset="0"
         style="stop-color:#0000d4;stop-opacity:1;" />
      <stop
         id="stop2644"
         offset="1"
         style="stop-color:#e0e0ff;stop-opacity:1" />
    </linearGradient>
    <linearGradient
       inkscape:collect="always"
       xlink:href="#linearGradient4387"
       id="linearGradient1214"
       gradientUnits="userSpaceOnUse"
       gradientTransform="scale(0.26458333)"
       x1="293.92825"
       y1="233.97812"
       x2="335.51709"
       y2="243.30739" />
    <linearGradient
       inkscape:collect="always"
       id="linearGradient4387">
      <stop
         style="stop-color:#3d004b;stop-opacity:1"
         offset="0"
         id="stop4383" />
      <stop
         style="stop-color:#f6d4ff;stop-opacity:1"
         offset="1"
         id="stop4385" />
    </linearGradient>
    <linearGradient
       inkscape:collect="always"
       xlink:href="#linearGradient4393"
       id="linearGradient1216"
       gradientUnits="userSpaceOnUse"
       x1="85.488823"
       y1="71.145882"
       x2="89.183624"
       y2="70.014542" />
    <linearGradient
       inkscape:collect="always"
       id="linearGradient4393">
      <stop
         style="stop-color:#0000a9;stop-opacity:1"
         offset="0"
         id="stop4389" />
      <stop
         style="stop-color:#9797ff;stop-opacity:1"
         offset="1"
         id="stop4391" />
    </linearGradient>
    <linearGradient
       inkscape:collect="always"
       xlink:href="#linearGradient4381"
       id="linearGradient1218"
       gradientUnits="userSpaceOnUse"
       gradientTransform="scale(0.26458333)"
       x1="316.69943"
       y1="107.21505"
       x2="333.54428"
       y2="97.409286" />
    <linearGradient
       inkscape:collect="always"
       id="linearGradient4381">
      <stop
         style="stop-color:#c3c300;stop-opacity:1"
         offset="0"
         id="stop4377" />
      <stop
         style="stop-color:#ffffb0;stop-opacity:1"
         offset="1"
         id="stop4379" />
    </linearGradient>
    <linearGradient
       inkscape:collect="always"
       xlink:href="#linearGradient4375"
       id="linearGradient1220"
       gradientUnits="userSpaceOnUse"
       gradientTransform="scale(0.26458333)"
       x1="314.34784"
       y1="138.07307"
       x2="334.03458"
       y2="132.6799" />
    <linearGradient
       inkscape:collect="always"
       id="linearGradient4375">
      <stop
         style="stop-color:#a9005c;stop-opacity:1"
         offset="0"
         id="stop4371" />
      <stop
         style="stop-color:#ffc0e2;stop-opacity:1"
         offset="1"
         id="stop4373" />
    </linearGradient>
    <linearGradient
       inkscape:collect="always"
       xlink:href="#linearGradient4357"
       id="linearGradient1222"
       gradientUnits="userSpaceOnUse"
       gradientTransform="scale(0.26458333)"
       x1="274.73633"
       y1="178.7627"
       x2="339.42773"
       y2="178.7627" />
    <linearGradient
       inkscape:collect="always"
       id="linearGradient4357">
      <stop
         style="stop-color:#008000;stop-opacity:1"
         offset="0"
         id="stop4353" />
      <stop
         style="stop-color:#c2ffc2;stop-opacity:1"
         offset="1"
         id="stop4355" />
    </linearGradient>
    <linearGradient
       inkscape:collect="always"
       xlink:href="#linearGradient2578"
       id="linearGradient1224"
       gradientUnits="userSpaceOnUse"
       x1="89.806915"
       y1="56.815655"
       x2="101.63152"
       y2="37.780125" />
    <linearGradient
       id="linearGradient2578"
       inkscape:collect="always">
      <stop
         id="stop2574"
         offset="0"
         style="stop-color:#00d400;stop-opacity:1;" />
      <stop
         id="stop2576"
         offset="1"
         style="stop-color:#c2ffc2;stop-opacity:1" />
    </linearGradient>
    <linearGradient
       inkscape:collect="always"
       xlink:href="#linearGradient2586"
       id="linearGradient1226"
       gradientUnits="userSpaceOnUse"
       gradientTransform="scale(0.26458333)"
       x1="339.42773"
       y1="169.5332"
       x2="364.11719"
       y2="109.55469" />
    <linearGradient
       id="linearGradient2586"
       inkscape:collect="always">
      <stop
         id="stop2582"
         offset="0"
         style="stop-color:#e4007c;stop-opacity:1;" />
      <stop
         id="stop2584"
         offset="1"
         style="stop-color:#ffc0e2;stop-opacity:1" />
    </linearGradient>
    <linearGradient
       inkscape:collect="always"
       xlink:href="#linearGradient2594"
       id="linearGradient1228"
       gradientUnits="userSpaceOnUse"
       gradientTransform="scale(0.26458333)"
       x1="339.42773"
       y1="124.33008"
       x2="351.37677"
       y2="88.383469" />
    <linearGradient
       id="linearGradient2594"
       inkscape:collect="always">
      <stop
         id="stop2590"
         offset="0"
         style="stop-color:#ffff00;stop-opacity:1;" />
      <stop
         id="stop2592"
         offset="1"
         style="stop-color:#ffffb0;stop-opacity:1" />
    </linearGradient>
    <linearGradient
       inkscape:collect="always"
       xlink:href="#linearGradient2240"
       id="linearGradient1230"
       gradientUnits="userSpaceOnUse"
       gradientTransform="matrix(0.09278585,0.01251006,-0.01042836,0.05903873,124.84369,-23.787318)"
       x1="718.95471"
       y1="2132.9614"
       x2="723.86713"
       y2="2212.6089" />
    <linearGradient
       id="linearGradient2240"
       inkscape:collect="always">
      <stop
         id="stop2236"
         offset="0"
         style="stop-color:#005200;stop-opacity:1" />
      <stop
         id="stop2238"
         offset="1"
         style="stop-color:#00d400;stop-opacity:1" />
    </linearGradient>
    <linearGradient
       inkscape:collect="always"
       xlink:href="#linearGradient2258"
       id="linearGradient1232"
       gradientUnits="userSpaceOnUse"
       gradientTransform="matrix(-0.02436824,0.00108832,0.00406007,0.01593037,171.59528,-18.923368)"
       x1="1371.7261"
       y1="8196.9072"
       x2="1378.1003"
       y2="8403.1338" />
    <linearGradient
       id="linearGradient2258"
       inkscape:collect="always">
      <stop
         id="stop2254"
         offset="0"
         style="stop-color:#690038;stop-opacity:1" />
      <stop
         id="stop2256"
         offset="1"
         style="stop-color:#e4007c;stop-opacity:1" />
    </linearGradient>
    <linearGradient
       inkscape:collect="always"
       xlink:href="#linearGradient2246"
       id="linearGradient1234"
       gradientUnits="userSpaceOnUse"
       gradientTransform="matrix(-0.02452569,3.7342827e-4,0.00296411,0.01596313,179.97893,-18.408679)"
       x1="1372.1874"
       y1="7837.9092"
       x2="1292.9696"
       y2="8000.4956" />
    <linearGradient
       id="linearGradient2246"
       inkscape:collect="always">
      <stop
         id="stop2242"
         offset="0"
         style="stop-color:#c7c700;stop-opacity:1" />
      <stop
         id="stop2244"
         offset="1"
         style="stop-color:#ffff00;stop-opacity:1" />
    </linearGradient>
    <linearGradient
       inkscape:collect="always"
       xlink:href="#linearGradient2111"
       id="linearGradient1236"
       gradientUnits="userSpaceOnUse"
       gradientTransform="matrix(0.09219695,-0.01142364,0.01771914,0.05943993,60.622719,-11.479735)"
       x1="370.81812"
       y1="2122.863"
       x2="360.89047"
       y2="2226.7952" />
    <linearGradient
       id="linearGradient2111"
       inkscape:collect="always">
      <stop
         id="stop2107"
         offset="0"
         style="stop-color:#002500;stop-opacity:1" />
      <stop
         id="stop2109"
         offset="1"
         style="stop-color:#00d400;stop-opacity:1" />
    </linearGradient>
    <linearGradient
       inkscape:collect="always"
       xlink:href="#linearGradient2117"
       id="linearGradient1238"
       gradientUnits="userSpaceOnUse"
       gradientTransform="matrix(0.02481697,6.9248514e-4,-0.00107411,0.01599965,105.7922,-18.963708)"
       x1="1369.5162"
       y1="8182.2217"
       x2="1378.4769"
       y2="8387.9014" />
    <linearGradient
       id="linearGradient2117"
       inkscape:collect="always">
      <stop
         id="stop2113"
         offset="0"
         style="stop-color:#38001e;stop-opacity:1" />
      <stop
         id="stop2115"
         offset="1"
         style="stop-color:#e4007c;stop-opacity:1" />
    </linearGradient>
    <linearGradient
       inkscape:collect="always"
       xlink:href="#linearGradient2105"
       id="linearGradient1240"
       gradientUnits="userSpaceOnUse"
       gradientTransform="matrix(0.09379641,0.00261724,-0.00405958,0.06047111,105.79216,-18.963721)"
       x1="363.42062"
       y1="2142.4907"
       x2="371.50272"
       y2="2177.7202" />
    <linearGradient
       id="linearGradient2105"
       inkscape:collect="always">
      <stop
         id="stop2101"
         offset="0"
         style="stop-color:#340042;stop-opacity:1" />
      <stop
         id="stop2103"
         offset="1"
         style="stop-color:#660080;stop-opacity:1" />
    </linearGradient>
    <linearGradient
       inkscape:collect="always"
       xlink:href="#linearGradient2099"
       id="linearGradient1242"
       gradientUnits="userSpaceOnUse"
       gradientTransform="matrix(0.02481697,6.9248514e-4,-0.00107411,0.01599965,107.1124,-19.046521)"
       x1="1442.1904"
       y1="7807.418"
       x2="1291.6617"
       y2="8035.5254" />
    <linearGradient
       id="linearGradient2099"
       inkscape:collect="always">
      <stop
         id="stop2095"
         offset="0"
         style="stop-color:#868600;stop-opacity:1" />
      <stop
         id="stop2097"
         offset="1"
         style="stop-color:#ffff00;stop-opacity:1" />
    </linearGradient>
    <linearGradient
       inkscape:collect="always"
       xlink:href="#linearGradient2905"
       id="linearGradient1244"
       gradientUnits="userSpaceOnUse"
       gradientTransform="matrix(-0.09282992,0.00921119,0.01403041,0.06094431,158.23367,5.2360621)"
       x1="365.48102"
       y1="2125.3853"
       x2="371.63745"
       y2="2161.6978" />
    <linearGradient
       inkscape:collect="always"
       id="linearGradient2905">
      <stop
         style="stop-color:#005600;stop-opacity:1"
         offset="0"
         id="stop2901" />
      <stop
         style="stop-color:#00d400;stop-opacity:1"
         offset="1"
         id="stop2903" />
    </linearGradient>
    <linearGradient
       inkscape:collect="always"
       xlink:href="#linearGradient2252"
       id="linearGradient1246"
       gradientUnits="userSpaceOnUse"
       gradientTransform="matrix(-0.09387185,-0.00101187,-0.00152339,0.06235151,189.2825,6.5385699)"
       x1="361.03314"
       y1="2140.1482"
       x2="365.08212"
       y2="2183.1216" />
    <linearGradient
       id="linearGradient2252"
       inkscape:collect="always">
      <stop
         id="stop2248"
         offset="0"
         style="stop-color:#3f004f;stop-opacity:1" />
      <stop
         id="stop2250"
         offset="1"
         style="stop-color:#660080;stop-opacity:1" />
    </linearGradient>
    <linearGradient
       inkscape:collect="always"
       xlink:href="#linearGradient2899"
       id="linearGradient1248"
       gradientUnits="userSpaceOnUse"
       gradientTransform="matrix(-0.09380067,-0.00259963,-0.00395974,0.06158163,195.36331,8.5623129)"
       x1="367.8295"
       y1="2134.2703"
       x2="372.53226"
       y2="2184.6799" />
    <linearGradient
       inkscape:collect="always"
       id="linearGradient2899">
      <stop
         style="stop-color:#006700;stop-opacity:1"
         offset="0"
         id="stop2895" />
      <stop
         style="stop-color:#00d400;stop-opacity:1"
         offset="1"
         id="stop2897" />
    </linearGradient>
    <linearGradient
       inkscape:collect="always"
       xlink:href="#linearGradient2258"
       id="linearGradient1250"
       gradientUnits="userSpaceOnUse"
       gradientTransform="matrix(0.02424053,9.5690633e-5,-1.4340719e-4,0.01617486,117.04095,8.2426619)"
       x1="1367.8186"
       y1="7970.79"
       x2="1371.0911"
       y2="8087.0923" />
    <linearGradient
       inkscape:collect="always"
       xlink:href="#linearGradient2099"
       id="linearGradient1252"
       gradientUnits="userSpaceOnUse"
       gradientTransform="matrix(0.02457148,-0.00239224,0.00364384,0.01613157,86.095588,12.198741)"
       x1="1442.1904"
       y1="7807.418"
       x2="1291.6617"
       y2="8035.5254" />
    <linearGradient
       inkscape:collect="always"
       xlink:href="#linearGradient4320"
       id="linearGradient1254"
       gradientUnits="userSpaceOnUse"
       gradientTransform="matrix(0.73937705,-0.20183243,0.27539242,0.54188225,78.853799,87.03074)"
       x1="90.126671"
       y1="18.341459"
       x2="90.238792"
       y2="30.68771" />
    <linearGradient
       inkscape:collect="always"
       id="linearGradient4320">
      <stop
         style="stop-color:#0000d4;stop-opacity:1;"
         offset="0"
         id="stop4316" />
      <stop
         style="stop-color:#6767ff;stop-opacity:1"
         offset="1"
         id="stop4318" />
    </linearGradient>
    <linearGradient
       inkscape:collect="always"
       xlink:href="#linearGradient2099"
       id="linearGradient1256"
       gradientUnits="userSpaceOnUse"
       gradientTransform="matrix(0.06855747,0.020559,-0.02805195,0.0502451,165.04697,-22.904002)"
       x1="493.46844"
       y1="1900.4822"
       x2="533.84521"
       y2="1810.9497" />
    <linearGradient
       inkscape:collect="always"
       xlink:href="#linearGradient3300"
       id="linearGradient1258"
       gradientUnits="userSpaceOnUse"
       gradientTransform="matrix(0.06925677,-0.01925896,0.02627809,0.05075761,65.617469,-2.366044)"
       x1="545.91583"
       y1="1805.8438"
       x2="570.27863"
       y2="1872.7678" />
    <linearGradient
       inkscape:collect="always"
       id="linearGradient3300">
      <stop
         style="stop-color:#beffbe;stop-opacity:1"
         offset="0"
         id="stop3296" />
      <stop
         style="stop-color:#00d400;stop-opacity:1"
         offset="1"
         id="stop3298" />
    </linearGradient>
    <linearGradient
       inkscape:collect="always"
       xlink:href="#linearGradient2504"
       id="linearGradient1260"
       gradientUnits="userSpaceOnUse"
       gradientTransform="matrix(0.01959888,0,0,0.01436383,111.42132,-19.129412)"
       x1="2089.1345"
       y1="6833.1133"
       x2="2194.5134"
       y2="7014.9507" />
    <linearGradient
       inkscape:collect="always"
       id="linearGradient2504">
      <stop
         style="stop-color:#df56ff;stop-opacity:1"
         offset="0"
         id="stop2500" />
      <stop
         style="stop-color:#660080;stop-opacity:1"
         offset="1"
         id="stop2502" />
    </linearGradient>
    <linearGradient
       inkscape:collect="always"
       xlink:href="#linearGradient2117"
       id="linearGradient1262"
       gradientUnits="userSpaceOnUse"
       gradientTransform="matrix(0.20875598,0,0,0.15299523,80.289821,68.2557)"
       x1="333.45694"
       y1="72.365669"
       x2="322.47046"
       y2="109.24744" />
    <linearGradient
       y2="188.55469"
       x2="404.70312"
       y1="254.52344"
       x1="339.4043"
       gradientTransform="scale(0.26458333)"
       gradientUnits="userSpaceOnUse"
       id="linearGradient2862"
       xlink:href="#linearGradient2640"
       inkscape:collect="always" />
    <linearGradient
       y2="62.434948"
       x2="98.123726"
       y1="74.097282"
       x1="89.80072"
       gradientUnits="userSpaceOnUse"
       id="linearGradient2864"
       xlink:href="#linearGradient2646"
       inkscape:collect="always" />
    <linearGradient
       y2="243.30739"
       x2="335.51709"
       y1="233.97812"
       x1="293.92825"
       gradientTransform="scale(0.26458333)"
       gradientUnits="userSpaceOnUse"
       id="linearGradient2866"
       xlink:href="#linearGradient4387"
       inkscape:collect="always" />
    <linearGradient
       y2="70.014542"
       x2="89.183624"
       y1="71.145882"
       x1="85.488823"
       gradientUnits="userSpaceOnUse"
       id="linearGradient2868"
       xlink:href="#linearGradient4393"
       inkscape:collect="always" />
    <linearGradient
       y2="97.409286"
       x2="333.54428"
       y1="107.21505"
       x1="316.69943"
       gradientTransform="scale(0.26458333)"
       gradientUnits="userSpaceOnUse"
       id="linearGradient2870"
       xlink:href="#linearGradient4381"
       inkscape:collect="always" />
    <linearGradient
       y2="132.6799"
       x2="334.03458"
       y1="138.07307"
       x1="314.34784"
       gradientTransform="scale(0.26458333)"
       gradientUnits="userSpaceOnUse"
       id="linearGradient2872"
       xlink:href="#linearGradient4375"
       inkscape:collect="always" />
    <linearGradient
       y2="178.7627"
       x2="339.42773"
       y1="178.7627"
       x1="274.73633"
       gradientTransform="scale(0.26458333)"
       gradientUnits="userSpaceOnUse"
       id="linearGradient2874"
       xlink:href="#linearGradient4357"
       inkscape:collect="always" />
    <linearGradient
       y2="37.780125"
       x2="101.63152"
       y1="56.815655"
       x1="89.806915"
       gradientUnits="userSpaceOnUse"
       id="linearGradient2876"
       xlink:href="#linearGradient2578"
       inkscape:collect="always" />
    <linearGradient
       y2="109.55469"
       x2="364.11719"
       y1="169.5332"
       x1="339.42773"
       gradientTransform="scale(0.26458333)"
       gradientUnits="userSpaceOnUse"
       id="linearGradient2878"
       xlink:href="#linearGradient2586"
       inkscape:collect="always" />
    <linearGradient
       y2="88.383469"
       x2="351.37677"
       y1="124.33008"
       x1="339.42773"
       gradientTransform="scale(0.26458333)"
       gradientUnits="userSpaceOnUse"
       id="linearGradient2880"
       xlink:href="#linearGradient2594"
       inkscape:collect="always" />
    <linearGradient
       y2="2212.6089"
       x2="723.86713"
       y1="2132.9614"
       x1="718.95471"
       gradientTransform="matrix(0.09388421,0,0,0.09388421,40.822528,-147.45379)"
       gradientUnits="userSpaceOnUse"
       id="linearGradient2882"
       xlink:href="#linearGradient2240"
       inkscape:collect="always" />
    <linearGradient
       y2="8403.1338"
       x2="1378.1003"
       y1="8196.9072"
       x1="1371.7261"
       gradientTransform="matrix(-0.02389317,0.00679353,0.00679353,0.02389317,87.876259,-149.68956)"
       gradientUnits="userSpaceOnUse"
       id="linearGradient2884"
       xlink:href="#linearGradient2258"
       inkscape:collect="always" />
    <linearGradient
       y2="8000.4956"
       x2="1292.9696"
       y1="7837.9092"
       x1="1372.1874"
       gradientTransform="matrix(-0.02417357,0.00571611,0.00571611,0.02417357,96.251679,-150.64581)"
       gradientUnits="userSpaceOnUse"
       id="linearGradient2886"
       xlink:href="#linearGradient2246"
       inkscape:collect="always" />
    <linearGradient
       y2="2226.7952"
       x2="360.89047"
       y1="2122.863"
       x1="370.81812"
       gradientTransform="matrix(0.09219695,-0.01771914,0.01771914,0.09219695,-0.38973871,-137.10498)"
       gradientUnits="userSpaceOnUse"
       id="linearGradient2888"
       xlink:href="#linearGradient2111"
       inkscape:collect="always" />
    <linearGradient
       y2="8387.9014"
       x2="1378.4769"
       y1="8182.2217"
       x1="1369.5162"
       gradientTransform="matrix(0.02481697,0.00107411,-0.00107411,0.02481697,44.779745,-148.71333)"
       gradientUnits="userSpaceOnUse"
       id="linearGradient2890"
       xlink:href="#linearGradient2117"
       inkscape:collect="always" />
    <linearGradient
       y2="2177.7202"
       x2="371.50272"
       y1="2142.4907"
       x1="363.42062"
       gradientTransform="matrix(0.09379641,0.00405958,-0.00405958,0.09379641,44.7797,-148.71335)"
       gradientUnits="userSpaceOnUse"
       id="linearGradient2892"
       xlink:href="#linearGradient2105"
       inkscape:collect="always" />
    <linearGradient
       y2="8035.5254"
       x2="1291.6617"
       y1="7807.418"
       x1="1442.1904"
       gradientTransform="matrix(0.02481697,0.00107411,-0.00107411,0.02481697,46.099938,-148.84178)"
       gradientUnits="userSpaceOnUse"
       id="linearGradient2894"
       xlink:href="#linearGradient2099"
       inkscape:collect="always" />
    <linearGradient
       y2="2161.6978"
       x2="371.63745"
       y1="2125.3853"
       x1="365.48102"
       gradientTransform="matrix(-0.09282992,0.01403041,0.01403041,0.09282992,97.22121,-123.0017)"
       gradientUnits="userSpaceOnUse"
       id="linearGradient2896"
       xlink:href="#linearGradient2905"
       inkscape:collect="always" />
    <linearGradient
       y2="2183.1216"
       x2="365.08212"
       y1="2140.1482"
       x1="361.03314"
       gradientTransform="matrix(-0.09387185,-0.00154127,-0.00152339,0.09497335,128.27004,-121.01773)"
       gradientUnits="userSpaceOnUse"
       id="linearGradient2898"
       xlink:href="#linearGradient2252"
       inkscape:collect="always" />
    <linearGradient
       y2="2184.6799"
       x2="372.53226"
       y1="2134.2703"
       x1="367.8295"
       gradientTransform="matrix(-0.09380067,-0.00395974,-0.00395974,0.09380067,134.35085,-117.93518)"
       gradientUnits="userSpaceOnUse"
       id="linearGradient2900"
       xlink:href="#linearGradient2899"
       inkscape:collect="always" />
    <linearGradient
       y2="8087.0923"
       x2="1371.0911"
       y1="7970.79"
       x1="1367.8186"
       gradientTransform="matrix(0.02424053,1.4575525e-4,-1.4340719e-4,0.02463743,56.028492,-118.42207)"
       gradientUnits="userSpaceOnUse"
       id="linearGradient2902"
       xlink:href="#linearGradient2258"
       inkscape:collect="always" />
    <linearGradient
       y2="8035.5254"
       x2="1291.6617"
       y1="7807.418"
       x1="1442.1904"
       gradientTransform="matrix(0.02457148,-0.00364384,0.00364384,0.02457148,25.08313,-112.3962)"
       gradientUnits="userSpaceOnUse"
       id="linearGradient2904"
       xlink:href="#linearGradient2099"
       inkscape:collect="always" />
    <linearGradient
       y2="30.68771"
       x2="90.238792"
       y1="18.341459"
       x1="90.126671"
       gradientTransform="matrix(0.73937705,-0.20183243,0.27539242,0.54188225,17.841341,26.409918)"
       gradientUnits="userSpaceOnUse"
       id="linearGradient2906"
       xlink:href="#linearGradient4320"
       inkscape:collect="always" />
    <linearGradient
       y2="1810.9497"
       x2="533.84521"
       y1="1900.4822"
       x1="493.46844"
       gradientTransform="matrix(0.06855747,0.020559,-0.02805195,0.0502451,104.03451,-83.524824)"
       gradientUnits="userSpaceOnUse"
       id="linearGradient2908"
       xlink:href="#linearGradient2099"
       inkscape:collect="always" />
    <linearGradient
       y2="1872.7678"
       x2="570.27863"
       y1="1805.8438"
       x1="545.91583"
       gradientTransform="matrix(0.06925677,-0.01925896,0.02627809,0.05075761,4.605011,-62.986866)"
       gradientUnits="userSpaceOnUse"
       id="linearGradient2910"
       xlink:href="#linearGradient3300"
       inkscape:collect="always" />
    <linearGradient
       y2="7014.9507"
       x2="2194.5134"
       y1="6833.1133"
       x1="2089.1345"
       gradientTransform="matrix(0.01959888,0,0,0.01436383,50.408861,-79.750234)"
       gradientUnits="userSpaceOnUse"
       id="linearGradient2912"
       xlink:href="#linearGradient2504"
       inkscape:collect="always" />
    <linearGradient
       y2="109.24744"
       x2="322.47046"
       y1="72.365669"
       x1="333.45694"
       gradientTransform="matrix(0.20875598,0,0,0.15299523,19.277363,7.6348776)"
       gradientUnits="userSpaceOnUse"
       id="linearGradient2914"
       xlink:href="#linearGradient2117"
       inkscape:collect="always" />
  </defs>
  <sodipodi:namedview
     showborder="true"
     inkscape:window-maximized="1"
     inkscape:window-y="23"
     inkscape:window-x="0"
     inkscape:window-height="855"
     inkscape:window-width="1440"
     showgrid="false"
     inkscape:document-rotation="0"
     inkscape:current-layer="layer1"
     inkscape:document-units="px"
     inkscape:cy="27.228761"
     inkscape:cx="146.41241"
     inkscape:zoom="0.5049827"
     inkscape:pageshadow="2"
     inkscape:pageopacity="0.0"
     borderopacity="1.0"
     bordercolor="#666666"
     pagecolor="#ffffff"
     id="base"
     inkscape:snap-global="true"
     units="px"
     inkscape:showpageshadow="false" />
  <metadata
     id="metadata1399">
    <rdf:RDF>
      <cc:Work
         rdf:about="">
        <dc:format>image/svg+xml</dc:format>
        <dc:type
           rdf:resource="http://purl.org/dc/dcmitype/StillImage" />
        <dc:title></dc:title>
      </cc:Work>
    </rdf:RDF>
  </metadata>
  <g
     id="layer1"
     inkscape:groupmode="layer"
     inkscape:label="Logo">
    <g
       id="g1264"
       inkscape:export-xdpi="96"
       inkscape:export-ydpi="96"
       transform="translate(-125.14019,-78.376203)">
      <path
         style="fill:#ffff00;stroke:none;stroke-width:0.264583px;stroke-linecap:butt;stroke-linejoin:miter;stroke-opacity:1"
         d="m 150.81934,117.43664 17.11609,-10.24257 -17.13917,-7.750677 -17.093,7.750677 z"
         id="path1052" />
      <g
         transform="translate(61.012458,60.620822)"
         style="opacity:0.881481"
         id="g1058">
        <path
           id="path1054"
           style="fill:url(#linearGradient2862);fill-opacity:1;stroke:none;stroke-width:0.264583px;stroke-linecap:butt;stroke-linejoin:miter;stroke-opacity:1"
           d="m 107.0777,49.888428 -17.27698,10.18749 v 7.266741 l 8.323006,-4.907711 z" />
        <path
           id="path1056"
           style="fill:url(#linearGradient2864);fill-opacity:1;stroke:none;stroke-width:0.264583px;stroke-linecap:butt;stroke-linejoin:miter;stroke-opacity:1"
           d="m 98.123726,62.434948 -8.323006,4.907711 v 6.754624 z" />
      </g>
      <g
         transform="translate(61.012458,60.620822)"
         style="opacity:0.51358"
         id="g1064">
        <path
           id="path1060"
           style="fill:url(#linearGradient2866);fill-opacity:1;stroke:none;stroke-width:0.264583px;stroke-linecap:butt;stroke-linejoin:miter;stroke-opacity:1"
           d="m 72.523222,49.888428 8.954492,12.54652 8.323006,4.907711 v -7.266741 z" />
        <path
           id="path1062"
           style="fill:url(#linearGradient2868);fill-opacity:1;stroke:none;stroke-width:0.264583px;stroke-linecap:butt;stroke-linejoin:miter;stroke-opacity:1"
           d="M 81.477714,62.434948 89.80072,74.097283 V 67.342659 Z" />
      </g>
      <g
         transform="translate(61.012458,60.620822)"
         style="opacity:0.51358"
         id="g1072">
        <path
           id="path1066"
           style="fill:url(#linearGradient2870);fill-opacity:1;stroke:none;stroke-width:0.264583px;stroke-linecap:butt;stroke-linejoin:miter;stroke-opacity:1"
           d="m 89.806919,18.131193 -6.532417,10.855152 6.532417,3.909322 z" />
        <path
           id="path1068"
           style="fill:url(#linearGradient2872);fill-opacity:1;stroke:none;stroke-width:0.264583px;stroke-linecap:butt;stroke-linejoin:miter;stroke-opacity:1"
           d="m 83.274502,28.986345 -3.889684,6.46317 -1.402498,2.330609 11.824599,7.075535 V 32.895667 Z" />
        <path
           id="path1070"
           style="fill:url(#linearGradient2874);fill-opacity:1;stroke:none;stroke-width:0.264583px;stroke-linecap:butt;stroke-linejoin:miter;stroke-opacity:1"
           d="m 77.982836,37.779605 -5.292183,8.793779 17.116266,10.242269 V 44.855659 Z" />
      </g>
      <g
         transform="translate(61.012458,60.620822)"
         style="opacity:0.881481"
         id="g1080">
        <path
           id="path1074"
           style="fill:url(#linearGradient2876);fill-opacity:1;stroke:none;stroke-width:0.264583px;stroke-linecap:butt;stroke-linejoin:miter;stroke-opacity:1"
           d="M 101.63152,37.780124 89.807438,44.856178 V 56.816172 L 106.92371,46.573903 Z" />
        <path
           id="path1076"
           style="fill:url(#linearGradient2878);fill-opacity:1;stroke:none;stroke-width:0.264583px;stroke-linecap:butt;stroke-linejoin:miter;stroke-opacity:1"
           d="m 96.339339,28.986345 -6.53242,3.909322 v 11.959992 l 11.824601,-7.075535 z" />
        <path
           id="path1078"
           style="fill:url(#linearGradient2880);fill-opacity:1;stroke:none;stroke-width:0.264583px;stroke-linecap:butt;stroke-linejoin:miter;stroke-opacity:1"
           d="m 89.806919,18.131193 v 14.764474 l 6.53242,-3.909322 z" />
      </g>
      <path
         id="path1128"
         d="m 150.81934,117.43664 17.11609,-10.24257 -17.13917,-7.750677 -17.093,7.750677 z"
         style="fill:#ffff00;stroke:none;stroke-width:0.264583px;stroke-linecap:butt;stroke-linejoin:miter;stroke-opacity:1" />
      <g
         transform="translate(61.012458,60.620822)"
         id="g1134"
         style="opacity:0.881481">
        <path
           d="m 107.0777,49.888428 -17.27698,10.18749 v 7.266741 l 8.323006,-4.907711 z"
           style="fill:url(#linearGradient1210);fill-opacity:1;stroke:none;stroke-width:0.264583px;stroke-linecap:butt;stroke-linejoin:miter;stroke-opacity:1"
           id="path1130" />
        <path
           d="m 98.123726,62.434948 -8.323006,4.907711 v 6.754624 z"
           style="fill:url(#linearGradient1212);fill-opacity:1;stroke:none;stroke-width:0.264583px;stroke-linecap:butt;stroke-linejoin:miter;stroke-opacity:1"
           id="path1132" />
      </g>
      <g
         transform="translate(61.012458,60.620822)"
         id="g1140"
         style="opacity:0.51358">
        <path
           d="m 72.523222,49.888428 8.954492,12.54652 8.323006,4.907711 v -7.266741 z"
           style="fill:url(#linearGradient1214);fill-opacity:1;stroke:none;stroke-width:0.264583px;stroke-linecap:butt;stroke-linejoin:miter;stroke-opacity:1"
           id="path1136" />
        <path
           d="M 81.477714,62.434948 89.80072,74.097283 V 67.342659 Z"
           style="fill:url(#linearGradient1216);fill-opacity:1;stroke:none;stroke-width:0.264583px;stroke-linecap:butt;stroke-linejoin:miter;stroke-opacity:1"
           id="path1138" />
      </g>
      <g
         transform="translate(61.012458,60.620822)"
         id="g1148"
         style="opacity:0.51358">
        <path
           d="m 89.806919,18.131193 -6.532417,10.855152 6.532417,3.909322 z"
           style="fill:url(#linearGradient1218);fill-opacity:1;stroke:none;stroke-width:0.264583px;stroke-linecap:butt;stroke-linejoin:miter;stroke-opacity:1"
           id="path1142" />
        <path
           d="m 83.274502,28.986345 -3.889684,6.46317 -1.402498,2.330609 11.824599,7.075535 V 32.895667 Z"
           style="fill:url(#linearGradient1220);fill-opacity:1;stroke:none;stroke-width:0.264583px;stroke-linecap:butt;stroke-linejoin:miter;stroke-opacity:1"
           id="path1144" />
        <path
           d="m 77.982836,37.779605 -5.292183,8.793779 17.116266,10.242269 V 44.855659 Z"
           style="fill:url(#linearGradient1222);fill-opacity:1;stroke:none;stroke-width:0.264583px;stroke-linecap:butt;stroke-linejoin:miter;stroke-opacity:1"
           id="path1146" />
      </g>
      <g
         transform="translate(61.012458,60.620822)"
         id="g1156"
         style="opacity:0.881481">
        <path
           d="M 101.63152,37.780124 89.807438,44.856178 V 56.816172 L 106.92371,46.573903 Z"
           style="fill:url(#linearGradient1224);fill-opacity:1;stroke:none;stroke-width:0.264583px;stroke-linecap:butt;stroke-linejoin:miter;stroke-opacity:1"
           id="path1150" />
        <path
           d="m 96.339339,28.986345 -6.53242,3.909322 v 11.959992 l 11.824601,-7.075535 z"
           style="fill:url(#linearGradient1226);fill-opacity:1;stroke:none;stroke-width:0.264583px;stroke-linecap:butt;stroke-linejoin:miter;stroke-opacity:1"
           id="path1152" />
        <path
           d="m 89.806919,18.131193 v 14.764474 l 6.53242,-3.909322 z"
           style="fill:url(#linearGradient1228);fill-opacity:1;stroke:none;stroke-width:0.264583px;stroke-linecap:butt;stroke-linejoin:miter;stroke-opacity:1"
           id="path1154" />
      </g>
      <g
         style="opacity:0.62963"
         id="g1175">
        <g
           id="g1088"
           style="opacity:0.716049"
           transform="matrix(0.98830088,0.1332499,-0.11107687,0.6288462,68.120047,63.49884)">
          <path
             d="m 106.50098,46.323673 a 3.81683,7.6336602 7.999646 0 1 2.75068,7.837381 3.8102402,7.62048 7.999646 0 0 2.35229,7.72466 3.81683,7.6336602 7.999646 0 1 -0.46509,-0.009 3.81683,7.6336602 7.999646 0 1 -0.29203,-0.0646 3.81683,7.6336602 7.999646 0 1 -0.2981,-0.0183 3.81683,7.6336602 7.999646 0 1 -2.75073,-7.837399 3.8102402,7.62048 7.999646 0 0 -2.35228,-7.724701 3.81683,7.6336602 7.999646 0 1 0.46514,0.009 3.81683,7.6336602 7.999646 0 1 0.29184,0.0645 3.81683,7.6336602 7.999646 0 1 0.29828,0.0184 z"
             style="fill:url(#linearGradient2882);fill-opacity:1;stroke:none;stroke-width:0.0178773;stroke-miterlimit:4;stroke-dasharray:none"
             id="path1082" />
          <path
             id="path1084"
             style="fill:url(#linearGradient2884);fill-opacity:1;stroke:none;stroke-width:0.0178773;stroke-miterlimit:4;stroke-dasharray:none"
             d="m 106.46199,46.411483 a 3.81683,7.6336604 0.64311169 0 1 0.46242,-0.0509 3.81683,7.6336604 0.64311169 0 1 0.29771,0.0266 3.81683,7.6336604 0.64311169 0 1 0.29821,-0.0201 3.81683,7.6336604 0.64311169 0 1 3.73153,7.420671 3.8102402,7.62048 0.64311169 0 0 3.32202,7.35989 3.81683,7.6336604 0.64311169 0 1 -0.46234,0.0511 3.81683,7.6336604 0.64311169 0 1 -0.29792,-0.0267 3.81683,7.6336604 0.64311169 0 1 -0.298,0.0201 3.81683,7.6336604 0.64311169 0 1 -0.11347,-0.005 3.8102402,7.62048 0.64311169 0 0 0.46172,0.16227 3.81683,7.6336604 0.64311169 0 1 -0.46241,0.0511 3.81683,7.6336604 0.64311169 0 1 -0.29791,-0.0267 3.81683,7.6336604 0.64311169 0 1 -0.29796,0.0201 3.81683,7.6336604 0.64311169 0 1 -3.73163,-7.42066 3.8102402,7.62048 0.64311169 0 0 -3.322,-7.359951 3.81683,7.6336604 0.64311169 0 1 0.46244,-0.0509 3.81683,7.6336604 0.64311169 0 1 0.2977,0.0266 3.81683,7.6336604 0.64311169 0 1 0.29815,-0.0201 3.81683,7.6336604 0.64311169 0 1 0.11346,0.005 3.8102402,7.62048 0.64311169 0 0 -0.4617,-0.16229 z" />
          <path
             id="path1086"
             style="fill:url(#linearGradient2886);fill-opacity:1;stroke:none;stroke-width:0.0178773;stroke-miterlimit:4;stroke-dasharray:none"
             d="m 106.70658,45.873853 a 7.6336604,3.81683 76.696136 0 1 5.41012,6.302501 7.62048,3.8102402 76.696136 0 0 4.99799,6.342229 7.6336604,3.81683 76.696136 0 1 -0.43645,0.160921 7.6336604,3.81683 76.696136 0 1 -0.19066,0.035 7.6336604,3.81683 76.696136 0 1 -0.18588,0.0541 7.6336604,3.81683 76.696136 0 1 -0.10272,0.0214 7.6336604,3.81683 76.696136 0 1 -0.10069,0.0267 7.6336604,3.81683 76.696136 0 1 -0.1907,0.0349 7.6336604,3.81683 76.696136 0 1 -0.18582,0.0541 7.6336604,3.81683 76.696136 0 1 -5.41016,-6.3025 7.62048,3.8102402 76.696136 0 0 -4.998,-6.342261 7.6336604,3.81683 76.696136 0 1 0.43651,-0.1609 7.6336604,3.81683 76.696136 0 1 0.19036,-0.035 7.6336604,3.81683 76.696136 0 1 0.18618,-0.0542 7.6336604,3.81683 76.696136 0 1 0.10265,-0.0213 7.6336604,3.81683 76.696136 0 1 0.10074,-0.0268 7.6336604,3.81683 76.696136 0 1 0.19051,-0.035 7.6336604,3.81683 76.696136 0 1 0.18602,-0.0541 z" />
        </g>
        <path
           d="m 168.22957,106.82055 a 3.6589588,5.0667956 33.280489 0 1 1.84795,5.29504 3.6526415,5.0580473 33.280493 0 0 1.46674,5.17106 3.6589588,5.0667956 33.280489 0 1 -0.45865,-0.0676 3.6589588,5.0667956 33.280489 0 1 -0.28144,-0.0795 3.6589588,5.0667956 33.280489 0 1 -0.29258,-0.0512 3.6589588,5.0667956 33.280489 0 1 -1.84799,-5.29505 3.6526415,5.0580473 33.280493 0 0 -1.46673,-5.17109 3.6589588,5.0667956 33.280489 0 1 0.4587,0.0676 3.6589588,5.0667956 33.280489 0 1 0.28126,0.0794 3.6589588,5.0667956 33.280489 0 1 0.29275,0.0513 z"
           style="opacity:1;fill:url(#linearGradient1230);fill-opacity:1;stroke:none;stroke-width:0.0142603;stroke-miterlimit:4;stroke-dasharray:none"
           id="path1158" />
        <path
           id="path1160"
           style="opacity:1;fill:url(#linearGradient1232);fill-opacity:1;stroke:none;stroke-width:0.0142603;stroke-miterlimit:4;stroke-dasharray:none"
           d="m 168.18128,106.87057 a 3.7924711,4.8884214 15.488472 0 1 0.46267,0.0296 3.7924711,4.8884214 15.488472 0 1 0.29127,0.0564 3.7924711,4.8884214 15.488472 0 1 0.29695,0.0271 3.7924711,4.8884214 15.488472 0 1 2.86361,5.16368 3.7859233,4.8799809 15.488474 0 0 2.46564,5.0709 3.7924711,4.8884214 15.488472 0 1 -0.4626,-0.0295 3.7924711,4.8884214 15.488472 0 1 -0.29147,-0.0565 3.7924711,4.8884214 15.488472 0 1 -0.29675,-0.0271 3.7924711,4.8884214 15.488472 0 1 -0.11158,-0.0183 3.7859233,4.8799809 15.488474 0 0 0.43829,0.16357 3.7924711,4.8884214 15.488472 0 1 -0.46268,-0.0295 3.7924711,4.8884214 15.488472 0 1 -0.29146,-0.0565 3.7924711,4.8884214 15.488472 0 1 -0.2967,-0.0271 3.7924711,4.8884214 15.488472 0 1 -2.86371,-5.16369 3.7859233,4.8799809 15.488474 0 0 -2.46562,-5.07093 3.7924711,4.8884214 15.488472 0 1 0.46269,0.0296 3.7924711,4.8884214 15.488472 0 1 0.29126,0.0564 3.7924711,4.8884214 15.488472 0 1 0.29689,0.0271 3.7924711,4.8884214 15.488472 0 1 0.11158,0.0183 3.7859233,4.8799809 15.488474 0 0 -0.43827,-0.16358 z" />
        <path
           id="path1162"
           style="opacity:1;fill:url(#linearGradient1234);fill-opacity:1;stroke:none;stroke-width:0.0142603;stroke-miterlimit:4;stroke-dasharray:none"
           d="m 168.48273,106.56508 a 5.0749236,3.6530987 68.369488 0 1 4.64676,4.6842 5.0661612,3.6467915 68.369484 0 0 4.23505,4.65427 5.0749236,3.6530987 68.369488 0 1 -0.44922,0.043 5.0749236,3.6530987 68.369488 0 1 -0.19232,-0.003 5.0749236,3.6530987 68.369488 0 1 -0.18971,0.009 5.0749236,3.6530987 68.369488 0 1 -0.1039,-2.3e-4 5.0749236,3.6530987 68.369488 0 1 -0.10248,0.003 5.0749236,3.6530987 68.369488 0 1 -0.19234,-0.003 5.0749236,3.6530987 68.369488 0 1 -0.18966,0.009 5.0749236,3.6530987 68.369488 0 1 -4.6468,-4.6842 5.0661612,3.6467915 68.369484 0 0 -4.23505,-4.65429 5.0749236,3.6530987 68.369488 0 1 0.44928,-0.043 5.0749236,3.6530987 68.369488 0 1 0.19202,0.003 5.0749236,3.6530987 68.369488 0 1 0.19002,-0.009 5.0749236,3.6530987 68.369488 0 1 0.10381,2.8e-4 5.0749236,3.6530987 68.369488 0 1 0.10254,-0.003 5.0749236,3.6530987 68.369488 0 1 0.19217,0.003 5.0749236,3.6530987 68.369488 0 1 0.18985,-0.009 z" />
      </g>
      <g
         style="opacity:0.62963"
         id="g1166">
        <g
           id="g1102"
           style="opacity:0.716049"
           transform="matrix(1,0,0,0.64470598,61.012458,76.912665)">
          <path
             id="path1090"
             style="fill:url(#linearGradient2888);fill-opacity:1;stroke:none;stroke-width:0.0178773;stroke-miterlimit:4;stroke-dasharray:none"
             d="m 71.507514,46.363809 a 7.6336602,3.81683 64.546176 0 0 -0.273262,8.301569 7.62048,3.8102402 64.546176 0 1 0.07297,8.074551 7.6336602,3.81683 64.546176 0 0 0.4411,-0.147705 7.6336602,3.81683 64.546176 0 0 0.259219,-0.149205 7.6336602,3.81683 64.546176 0 0 0.278856,-0.106952 7.6336602,3.81683 64.546176 0 0 0.273308,-8.301597 7.62048,3.8102402 64.546176 0 1 -0.073,-8.074587 7.6336602,3.81683 64.546176 0 0 -0.441121,0.14781 7.6336602,3.81683 64.546176 0 0 -0.259012,0.149166 7.6336602,3.81683 64.546176 0 0 -0.279053,0.106989 z" />
          <path
             d="m 72.124658,46.35921 a 7.6336604,3.81683 75.963149 0 0 -0.461633,0.05756 7.6336604,3.81683 75.963149 0 0 -0.283453,0.0949 7.6336604,3.81683 75.963149 0 0 -0.29493,0.04854 7.6336604,3.81683 75.963149 0 0 -1.911103,8.083241 7.62048,3.8102402 75.963149 0 1 -1.526817,7.929214 7.6336604,3.81683 75.963149 0 0 0.461602,-0.05745 7.6336604,3.81683 75.963149 0 0 0.28363,-0.09494 7.6336604,3.81683 75.963149 0 0 0.294753,-0.0485 7.6336604,3.81683 75.963149 0 0 0.10921,-0.03117 7.62048,3.8102402 75.963149 0 1 -0.411549,0.264802 7.6336604,3.81683 75.963149 0 0 0.461632,-0.05746 7.6336604,3.81683 75.963149 0 0 0.283649,-0.09494 7.6336604,3.81683 75.963149 0 0 0.294694,-0.04849 7.6336604,3.81683 75.963149 0 0 1.911187,-8.083229 7.62048,3.8102402 75.963149 0 1 1.526776,-7.929269 7.6336604,3.81683 75.963149 0 0 -0.461642,0.05756 7.6336604,3.81683 75.963149 0 0 -0.283433,0.0949 7.6336604,3.81683 75.963149 0 0 -0.294881,0.04853 7.6336604,3.81683 75.963149 0 0 -0.10922,0.03117 7.62048,3.8102402 75.963149 0 1 0.411557,-0.264814 z"
             style="fill:url(#linearGradient2890);fill-opacity:1;stroke:none;stroke-width:0.0178773;stroke-miterlimit:4;stroke-dasharray:none"
             id="path1092" />
          <path
             d="m 72.4867,45.959894 a 7.6336604,3.81683 64.546176 0 0 -0.441131,0.147813 7.6336604,3.81683 64.546176 0 0 -0.259012,0.149165 7.6336604,3.81683 64.546176 0 0 -0.175934,0.06161 3.81683,7.633661 1.4033664 0 0 -1.311134,1.544443 7.6336604,3.81683 64.546176 0 0 0.934741,6.802445 7.62048,3.8102402 64.546176 0 1 0.647021,7.415474 7.6336604,3.81683 71.174753 0 0 0.564954,-7.82916 7.62048,3.8102402 71.174753 0 1 -0.396113,-1.485498 7.62048,3.8102402 64.546176 0 1 0.43661,-6.806284 z"
             style="opacity:0.0590717;fill:#000000;fill-opacity:1;stroke:none;stroke-width:0.0178773;stroke-miterlimit:4;stroke-dasharray:none"
             id="path1094" />
          <path
             d="m 73.100014,46.121505 a 3.81683,7.6336607 1.4033664 0 0 -0.03068,-0.0022 3.81683,7.6336607 1.4033664 0 0 -0.267808,0.01226 3.81683,7.6336607 1.4033664 0 0 -0.307277,-0.03738 3.81683,7.6336607 1.4033664 0 0 -0.03068,-0.0022 3.81683,7.6336607 1.4033664 0 0 -0.29847,0.01602 3.81683,7.6336607 1.4033664 0 0 -0.297296,-0.03064 3.81683,7.6336607 1.4033664 0 0 -3.994165,7.282668 3.8102402,7.6204805 1.4033664 0 1 -3.582702,7.236562 3.81683,7.6336607 1.4033664 0 0 0.460265,0.06746 3.81683,7.6336607 1.4033664 0 0 0.268004,-0.0123 3.81683,7.6336607 1.4033664 0 0 0.337627,0.03846 3.81683,7.6336607 1.4033664 0 0 0.298657,-0.01606 3.81683,7.6336607 1.4033664 0 0 0.297109,0.03068 3.81683,7.6336607 1.4033664 0 0 3.903452,-6.138799 7.6336604,3.81683 71.174753 0 0 0.113096,0.366461 7.62048,3.8102402 71.174753 0 1 -0.859581,8.029007 7.6336604,3.81683 71.174753 0 0 0.455082,-0.09663 7.6336604,3.81683 71.174753 0 0 0.274666,-0.118366 7.6336604,3.81683 71.174753 0 0 0.289327,-0.07404 7.6336604,3.81683 71.174753 0 0 1.229776,-8.214601 7.62048,3.8102402 71.174753 0 1 -0.607389,-5.178309 3.8102402,7.6204805 1.4033664 0 1 2.778359,-3.094954 3.81683,7.6336607 1.4033664 0 0 -0.429812,-0.06648 z"
             style="fill:url(#linearGradient2892);fill-opacity:1;stroke:none;stroke-width:0.0178773;stroke-miterlimit:4;stroke-dasharray:none"
             id="path1096" />
          <path
             d="m 72.021998,46.089122 a 3.81683,7.633661 1.4033664 0 0 -1.078321,0.888279 3.81683,7.6336604 2.4782634 0 0 -0.0024,0.0035 3.81683,7.6336604 2.4782634 0 0 -0.693399,1.046669 3.81683,7.6336604 2.4782634 0 0 -6.53e-4,9.5e-4 3.81683,7.633661 1.4033664 0 0 -0.0081,0.0152 3.81683,7.633661 1.4033664 0 0 -1.234935,5.101406 3.8102402,7.620481 1.4033664 0 1 -3.185166,7.12006 3.81683,7.6336604 2.4782634 0 0 0.07967,-0.003 3.81683,7.6336604 2.4782634 0 0 0.192768,0.01825 3.81683,7.6336604 2.4782634 0 0 0.104913,0.0016 3.81683,7.6336604 2.4782634 0 0 0.10386,0.0073 3.81683,7.6336604 2.4782634 0 0 0.193878,-0.0015 3.81683,7.6336604 2.4782634 0 0 0.192698,0.01836 3.81683,7.6336604 2.4782634 0 0 0.665437,-0.08675 3.81683,7.633661 1.4033664 0 0 2.504082,-5.650975 7.6336604,3.81683 71.174753 0 0 0.112995,0.36646 7.62048,3.8102402 71.174753 0 1 0.336286,1.215109 3.81683,7.6336604 2.4782634 0 0 0.511325,-3.050344 3.8102402,7.62048 2.4782634 0 1 0.05007,-0.619942 7.62048,3.8102402 71.174753 0 1 -0.115613,-3.196802 3.8102402,7.6204807 1.4033664 0 1 2.778398,-3.094969 3.81683,7.633661 1.4033664 0 0 -0.429846,-0.0665 l 8.9e-5,4.63e-4 a 3.81683,7.633661 1.4033664 0 0 -0.03077,-0.0022 3.81683,7.633661 1.4033664 0 0 -0.267828,0.01227 3.81683,7.633661 1.4033664 0 0 -0.307276,-0.03748 3.81683,7.633661 1.4033664 0 0 -0.03077,-0.0022 3.81683,7.633661 1.4033664 0 0 -0.29847,0.01602 3.81683,7.633661 1.4033664 0 0 -0.143426,-0.0206 z"
             style="opacity:0.124473;fill:#000000;fill-opacity:1;stroke:none;stroke-width:0.0178773;stroke-miterlimit:4;stroke-dasharray:none"
             id="path1098" />
          <path
             d="m 72.741456,46.144164 a 3.81683,7.6336604 2.4782634 0 0 -4.13009,7.206462 3.8102402,7.62048 2.4782634 0 1 -3.717848,7.168067 3.81683,7.6336604 2.4782634 0 0 0.458909,0.0761 3.81683,7.6336604 2.4782634 0 0 0.193829,-0.0015 3.81683,7.6336604 2.4782634 0 0 0.192728,0.01825 3.81683,7.6336604 2.4782634 0 0 0.104913,0.0016 3.81683,7.6336604 2.4782634 0 0 0.10388,0.0073 3.81683,7.6336604 2.4782634 0 0 0.193868,-0.0016 3.81683,7.6336604 2.4782634 0 0 0.19267,0.01826 3.81683,7.6336604 2.4782634 0 0 4.130142,-7.20646 3.8102402,7.62048 2.4782634 0 1 3.717856,-7.168131 3.81683,7.6336604 2.4782634 0 0 -0.458962,-0.07605 3.81683,7.6336604 2.4782634 0 0 -0.193525,0.0016 3.81683,7.6336604 2.4782634 0 0 -0.193043,-0.01829 3.81683,7.6336604 2.4782634 0 0 -0.104804,-0.0016 3.81683,7.6336604 2.4782634 0 0 -0.104007,-0.0074 3.81683,7.6336604 2.4782634 0 0 -0.193671,0.0015 3.81683,7.6336604 2.4782634 0 0 -0.192886,-0.01822 z"
             style="fill:url(#linearGradient2894);fill-opacity:1;stroke:none;stroke-width:0.0178773;stroke-miterlimit:4;stroke-dasharray:none"
             id="path1100" />
        </g>
        <path
           id="path1166"
           style="opacity:0.716049;fill:url(#linearGradient1236);fill-opacity:1;stroke:none;stroke-width:0.0143543;stroke-miterlimit:4;stroke-dasharray:none"
           d="m 132.51997,106.80369 a 5.7204507,3.2837273 42.679007 0 0 -0.27326,5.35207 5.7105739,3.2780579 42.679005 0 1 0.073,5.20571 5.7204507,3.2837273 42.679007 0 0 0.4411,-0.0952 5.7204507,3.2837273 42.679007 0 0 0.25922,-0.0962 5.7204507,3.2837273 42.679007 0 0 0.27885,-0.069 5.7204507,3.2837273 42.679007 0 0 0.27331,-5.35209 5.7105739,3.2780579 42.679005 0 1 -0.073,-5.20573 5.7204507,3.2837273 42.679007 0 0 -0.44112,0.0953 5.7204507,3.2837273 42.679007 0 0 -0.25901,0.0962 5.7204507,3.2837273 42.679007 0 0 -0.27905,0.069 z" />
        <path
           d="m 133.13712,106.80072 a 5.2369439,3.5869013 57.196162 0 0 -0.46164,0.0371 5.2369439,3.5869013 57.196162 0 0 -0.28345,0.0612 5.2369439,3.5869013 57.196162 0 0 -0.29493,0.0313 5.2369439,3.5869013 57.196162 0 0 -1.9111,5.21131 5.2279018,3.5807084 57.196158 0 1 -1.52682,5.11202 5.2369439,3.5869013 57.196162 0 0 0.4616,-0.037 5.2369439,3.5869013 57.196162 0 0 0.28363,-0.0612 5.2369439,3.5869013 57.196162 0 0 0.29476,-0.0313 5.2369439,3.5869013 57.196162 0 0 0.1092,-0.0201 5.2279018,3.5807084 57.196158 0 1 -0.41154,0.17072 5.2369439,3.5869013 57.196162 0 0 0.46163,-0.037 5.2369439,3.5869013 57.196162 0 0 0.28365,-0.0612 5.2369439,3.5869013 57.196162 0 0 0.29469,-0.0313 5.2369439,3.5869013 57.196162 0 0 1.91119,-5.21131 5.2279018,3.5807084 57.196158 0 1 1.52677,-5.11204 5.2369439,3.5869013 57.196162 0 0 -0.46164,0.0371 5.2369439,3.5869013 57.196162 0 0 -0.28343,0.0612 5.2369439,3.5869013 57.196162 0 0 -0.29488,0.0313 5.2369439,3.5869013 57.196162 0 0 -0.10922,0.0201 5.2279018,3.5807084 57.196158 0 1 0.41156,-0.17073 z"
           style="opacity:1;fill:url(#linearGradient1238);fill-opacity:1;stroke:none;stroke-width:0.0143543;stroke-miterlimit:4;stroke-dasharray:none"
           id="path1168" />
        <path
           d="m 134.11247,106.64748 a 3.8138122,4.925361 4.0828023 0 0 -0.0307,-0.001 3.8138122,4.925361 4.0828023 0 0 -0.26781,0.008 3.8138122,4.925361 4.0828023 0 0 -0.30727,-0.0241 3.8138122,4.925361 4.0828023 0 0 -0.0307,-0.001 3.8138122,4.925361 4.0828023 0 0 -0.29847,0.0103 3.8138122,4.925361 4.0828023 0 0 -0.2973,-0.0197 3.8138122,4.925361 4.0828023 0 0 -3.99416,4.69518 3.8072276,4.9168569 4.0828031 0 1 -3.58271,4.66545 3.8138122,4.925361 4.0828023 0 0 0.46027,0.0435 3.8138122,4.925361 4.0828023 0 0 0.268,-0.008 3.8138122,4.925361 4.0828023 0 0 0.33763,0.0248 3.8138122,4.925361 4.0828023 0 0 0.29866,-0.0103 3.8138122,4.925361 4.0828023 0 0 0.29711,0.0198 3.8138122,4.925361 4.0828023 0 0 3.90345,-3.95773 5.429392,3.4597614 50.282975 0 0 0.11309,0.23626 5.4200176,3.4537881 50.282971 0 1 -0.85958,5.17635 5.429392,3.4597614 50.282975 0 0 0.45509,-0.0623 5.429392,3.4597614 50.282975 0 0 0.27466,-0.0763 5.429392,3.4597614 50.282975 0 0 0.28933,-0.0477 5.429392,3.4597614 50.282975 0 0 1.22977,-5.296 5.4200176,3.4537881 50.282971 0 1 -0.60738,-3.33849 3.8072276,4.9168569 4.0828031 0 1 2.77835,-1.99533 3.8138122,4.925361 4.0828023 0 0 -0.42981,-0.0429 z"
           style="opacity:1;fill:url(#linearGradient1240);fill-opacity:1;stroke:none;stroke-width:0.0143543;stroke-miterlimit:4;stroke-dasharray:none"
           id="path1172" />
        <path
           d="m 133.75391,106.66208 a 3.8074927,4.9335357 7.1599098 0 0 -4.13009,4.64605 3.800919,4.9250173 7.1599115 0 1 -3.71784,4.6213 3.8074927,4.9335357 7.1599098 0 0 0.45891,0.0491 3.8074927,4.9335357 7.1599098 0 0 0.19382,-9.7e-4 3.8074927,4.9335357 7.1599098 0 0 0.19273,0.0118 3.8074927,4.9335357 7.1599098 0 0 0.10492,10e-4 3.8074927,4.9335357 7.1599098 0 0 0.10388,0.005 3.8074927,4.9335357 7.1599098 0 0 0.19386,-0.001 3.8074927,4.9335357 7.1599098 0 0 0.19267,0.0118 3.8074927,4.9335357 7.1599098 0 0 4.13015,-4.64605 3.800919,4.9250173 7.1599115 0 1 3.71785,-4.62134 3.8074927,4.9335357 7.1599098 0 0 -0.45896,-0.049 3.8074927,4.9335357 7.1599098 0 0 -0.19353,0.001 3.8074927,4.9335357 7.1599098 0 0 -0.19304,-0.0118 3.8074927,4.9335357 7.1599098 0 0 -0.1048,-0.001 3.8074927,4.9335357 7.1599098 0 0 -0.10401,-0.005 3.8074927,4.9335357 7.1599098 0 0 -0.19367,9.7e-4 3.8074927,4.9335357 7.1599098 0 0 -0.19289,-0.0118 z"
           style="opacity:1;fill:url(#linearGradient1242);fill-opacity:1;stroke:none;stroke-width:0.0143543;stroke-miterlimit:4;stroke-dasharray:none"
           id="path1176" />
      </g>
      <g
         style="opacity:0.62963"
         transform="matrix(1,0,0,0.90622675,0,12.610174)"
         id="g1153">
        <g
           id="g1114"
           style="opacity:1"
           transform="matrix(1,0,0,0.65651586,61.012458,85.988629)">
          <path
             d="m 89.79179,73.867973 a 3.81683,7.6336604 5.9802142 0 0 -0.24929,0.0181 3.8102402,7.62048 5.9802142 0 1 2.623,7.63703 3.81683,7.6336604 5.9802142 0 0 3.02519,7.73558 3.81683,7.6336604 5.9802142 0 0 0.29858,0.008 3.81683,7.6336604 5.9802142 0 0 0.29408,0.0543 3.81683,7.6336604 5.9802142 0 0 0.46513,-0.008 3.8102402,7.62048 5.9802142 0 1 -2.62305,-7.63697 3.81683,7.6336604 5.9802142 0 0 -3.02513,-7.73555 3.81683,7.6336604 5.9802142 0 0 -0.29878,-0.008 3.81683,7.6336604 5.9802142 0 0 -0.2939,-0.0543 3.81683,7.6336604 5.9802142 0 0 -0.21583,-0.0103 z"
             style="fill:url(#linearGradient2896);fill-opacity:1;stroke:none;stroke-width:0.0178773;stroke-miterlimit:4;stroke-dasharray:none"
             id="path1104" />
          <path
             d="m 88.41772,74.051463 a 3.8168834,7.7231269 1.9663037 0 1 0.0305,8e-4 3.8168834,7.7231269 1.9663037 0 1 0.26661,0.0285 3.8168834,7.7231269 1.9663037 0 1 0.30897,-0.0192 3.8168834,7.7231269 1.9663037 0 1 0.0306,8e-4 3.8168834,7.7231269 1.9663037 0 1 0.296981,0.0341 3.8168834,7.7231269 1.9663037 0 1 0.29858,-0.013 3.8168834,7.7231269 1.9663037 0 1 3.554169,7.59532 3.8102934,7.7097922 1.9663037 0 0 3.14617,7.524 3.8168834,7.7231269 1.9663037 0 1 -0.46343,0.0406 3.8168834,7.7231269 1.9663037 0 1 -0.26681,-0.0285 3.8168834,7.7231269 1.9663037 0 1 -0.33931,0.0186 3.8168834,7.7231269 1.9663037 0 1 -0.29719,-0.0342 3.8168834,7.7231269 1.9663037 0 1 -0.29838,0.0131 3.8168834,7.7231269 1.9663037 0 1 -3.53165,-6.43462 3.8231051,7.7105581 21.847482 0 1 -0.13461,0.36333 3.8165043,7.6972451 21.847482 0 0 0.38077,8.16054 3.8231051,7.7105581 21.847482 0 1 -0.44872,-0.12416 3.8231051,7.7105581 21.847482 0 1 -0.26716,-0.136 3.8231051,7.7105581 21.847482 0 1 -0.28442,-0.0921 3.8231051,7.7105581 21.847482 0 1 -0.7393,-8.37025 3.8165043,7.6972451 21.847482 0 0 0.91417,-5.19331 3.8102934,7.7097922 1.9663037 0 0 -2.58949,-3.29283 3.8168834,7.7231269 1.9663037 0 1 0.43301,-0.0413 z"
             style="fill:url(#linearGradient2898);fill-opacity:1;stroke:none;stroke-width:0.0179818;stroke-miterlimit:4;stroke-dasharray:none"
             id="path1106" />
          <path
             id="path1108"
             style="fill:url(#linearGradient2900);fill-opacity:1;stroke:none;stroke-width:0.0178773;stroke-miterlimit:4;stroke-dasharray:none"
             d="m 90.23316,74.115963 a 3.81683,7.6336602 16.992185 0 1 1.49183,8.171 3.8102402,7.62048 16.992185 0 0 1.11596,7.9974 3.81683,7.6336602 16.992185 0 1 -0.45803,-0.0812 3.81683,7.6336602 16.992185 0 1 -0.27835,-0.10946 3.81683,7.6336602 16.992185 0 1 -0.29156,-0.0647 3.81683,7.6336602 16.992185 0 1 -1.49189,-8.17102 3.8102402,7.62048 16.992185 0 0 -1.11595,-7.99744 3.81683,7.6336602 16.992185 0 1 0.45807,0.0813 3.81683,7.6336602 16.992185 0 1 0.27815,0.10939 3.81683,7.6336602 16.992185 0 1 0.29175,0.0648 z" />
          <path
             d="m 89.80141,73.914233 a 7.5621761,3.7293362 74.231145 0 0 -0.44809,0.0742 7.5621761,3.7293362 74.231145 0 0 -0.27296,0.10457 7.5621761,3.7293362 74.231145 0 0 -0.28563,0.0601 7.5621761,3.7293362 74.231145 0 0 -1.56922,8.08254 7.5491192,3.7228978 74.231145 0 1 -1.20009,7.91569 7.5621761,3.7293362 74.231145 0 0 0.44804,-0.0741 7.5621761,3.7293362 74.231145 0 0 0.27313,-0.10467 7.5621761,3.7293362 74.231145 0 0 0.28543,-0.0601 7.5621761,3.7293362 74.231145 0 0 0.10546,-0.0346 7.5491192,3.7228978 74.231145 0 1 -0.39171,0.27771 7.5621761,3.7293362 74.231145 0 0 0.44809,-0.0741 7.5621761,3.7293362 74.231145 0 0 0.27312,-0.10464 7.5621761,3.7293362 74.231145 0 0 0.28541,-0.06 7.5621761,3.7293362 74.231145 0 0 1.56933,-8.08256 7.5491192,3.7228978 74.231145 0 1 1.20005,-7.91575 7.5621761,3.7293362 74.231145 0 0 -0.4481,0.0742 7.5621761,3.7293362 74.231145 0 0 -0.27295,0.10456 7.5621761,3.7293362 74.231145 0 0 -0.28557,0.0601 7.5621761,3.7293362 74.231145 0 0 -0.10545,0.0346 7.5491192,3.7228978 74.231145 0 1 0.3917,-0.27772 z"
             style="fill:url(#linearGradient2902);fill-opacity:1;stroke:none;stroke-width:0.0175882;stroke-miterlimit:4;stroke-dasharray:none"
             id="path1110" />
          <path
             id="path1112"
             style="fill:url(#linearGradient2904);fill-opacity:1;stroke:none;stroke-width:0.0178773;stroke-miterlimit:4;stroke-dasharray:none"
             d="m 88.15883,74.019333 a 7.6336604,3.81683 81.564782 0 0 -2.69103,7.85806 7.62048,3.8102402 81.564782 0 1 -2.29349,7.74232 7.6336604,3.81683 81.564782 0 0 0.46501,-0.0121 7.6336604,3.81683 81.564782 0 0 0.19005,-0.0382 7.6336604,3.81683 81.564782 0 0 0.19267,-0.0187 7.6336604,3.81683 81.564782 0 0 0.10335,-0.0182 7.6336604,3.81683 81.564782 0 0 0.10341,-0.0124 7.6336604,3.81683 81.564782 0 0 0.19008,-0.0382 7.6336604,3.81683 81.564782 0 0 0.19265,-0.0186 7.6336604,3.81683 81.564782 0 0 2.69107,-7.85808 7.62048,3.8102402 81.564782 0 1 2.29349,-7.74237 7.6336604,3.81683 81.564782 0 0 -0.46506,0.0122 7.6336604,3.81683 81.564782 0 0 -0.18975,0.0381 7.6336604,3.81683 81.564782 0 0 -0.19298,0.0187 7.6336604,3.81683 81.564782 0 0 -0.10324,0.0182 7.6336604,3.81683 81.564782 0 0 -0.1035,0.0124 7.6336604,3.81683 81.564782 0 0 -0.18991,0.0382 7.6336604,3.81683 81.564782 0 0 -0.19282,0.0186 z" />
        </g>
        <path
           d="m 150.80425,134.48412 a 3.7704315,5.0732915 15.534345 0 0 -0.24929,0.0119 3.7639218,5.0645319 15.534348 0 1 2.623,5.01383 3.7704315,5.0732915 15.534345 0 0 3.02519,5.07853 3.7704315,5.0732915 15.534345 0 0 0.29858,0.005 3.7704315,5.0732915 15.534345 0 0 0.29408,0.0357 3.7704315,5.0732915 15.534345 0 0 0.46513,-0.005 3.7639218,5.0645319 15.534348 0 1 -2.62305,-5.01379 3.7704315,5.0732915 15.534345 0 0 -3.02513,-5.07851 3.7704315,5.0732915 15.534345 0 0 -0.29878,-0.005 3.7704315,5.0732915 15.534345 0 0 -0.2939,-0.0356 3.7704315,5.0732915 15.534345 0 0 -0.21583,-0.007 z"
           style="opacity:1;fill:url(#linearGradient1244);fill-opacity:1;stroke:none;stroke-width:0.0144852;stroke-miterlimit:4;stroke-dasharray:none"
           id="path1180" />
        <path
           d="m 149.43018,134.60459 a 3.8117389,5.0771985 5.1976546 0 1 0.0305,5.2e-4 3.8117389,5.0771985 5.1976546 0 1 0.26661,0.0187 3.8117389,5.0771985 5.1976546 0 1 0.30897,-0.0126 3.8117389,5.0771985 5.1976546 0 1 0.0306,5.2e-4 3.8117389,5.0771985 5.1976546 0 1 0.29698,0.0224 3.8117389,5.0771985 5.1976546 0 1 0.29858,-0.009 3.8117389,5.0771985 5.1976546 0 1 3.55417,4.98645 3.8051578,5.0684323 5.1976552 0 0 3.14617,4.93962 3.8117389,5.0771985 5.1976546 0 1 -0.46343,0.0267 3.8117389,5.0771985 5.1976546 0 1 -0.26681,-0.0187 3.8117389,5.0771985 5.1976546 0 1 -0.33931,0.0122 3.8117389,5.0771985 5.1976546 0 1 -0.29719,-0.0225 3.8117389,5.0771985 5.1976546 0 1 -0.29838,0.009 3.8117389,5.0771985 5.1976546 0 1 -3.53165,-4.22443 3.4153012,5.666544 42.019546 0 1 -0.13461,0.23854 3.4094045,5.6567602 42.019547 0 0 0.38077,5.35752 3.4153012,5.666544 42.019546 0 1 -0.44872,-0.0815 3.4153012,5.666544 42.019546 0 1 -0.26716,-0.0893 3.4153012,5.666544 42.019546 0 1 -0.28442,-0.0605 3.4153012,5.666544 42.019546 0 1 -0.7393,-5.4952 3.4094045,5.6567602 42.019547 0 0 0.91417,-3.40949 3.8051578,5.0684323 5.1976552 0 0 -2.58949,-2.16179 3.8117389,5.0771985 5.1976546 0 1 0.43301,-0.0271 z"
           style="opacity:1;fill:url(#linearGradient1246);fill-opacity:1;stroke:none;stroke-width:0.0145699;stroke-miterlimit:4;stroke-dasharray:none"
           id="path1182" />
        <path
           id="path1184"
           style="opacity:1;fill:url(#linearGradient1248);fill-opacity:1;stroke:none;stroke-width:0.0144852;stroke-miterlimit:4;stroke-dasharray:none"
           d="m 151.24562,134.64693 a 3.5317144,5.4162075 36.007117 0 1 1.49183,5.3644 3.5256168,5.4068559 36.00712 0 0 1.11596,5.25042 3.5317144,5.4162075 36.007117 0 1 -0.45803,-0.0533 3.5317144,5.4162075 36.007117 0 1 -0.27835,-0.0719 3.5317144,5.4162075 36.007117 0 1 -0.29156,-0.0425 3.5317144,5.4162075 36.007117 0 1 -1.49189,-5.36441 3.5256168,5.4068559 36.00712 0 0 -1.11595,-5.25044 3.5317144,5.4162075 36.007117 0 1 0.45807,0.0534 3.5317144,5.4162075 36.007117 0 1 0.27815,0.0718 3.5317144,5.4162075 36.007117 0 1 0.29175,0.0425 z" />
        <path
           d="m 150.81387,134.5145 a 5.3134214,3.4845707 56.267178 0 0 -0.44809,0.0487 5.3134214,3.4845707 56.267178 0 0 -0.27296,0.0686 5.3134214,3.4845707 56.267178 0 0 -0.28563,0.0395 5.3134214,3.4845707 56.267178 0 0 -1.56922,5.30631 5.3042473,3.4785548 56.267172 0 1 -1.20009,5.19678 5.3134214,3.4845707 56.267178 0 0 0.44804,-0.0486 5.3134214,3.4845707 56.267178 0 0 0.27313,-0.0687 5.3134214,3.4845707 56.267178 0 0 0.28543,-0.0394 5.3134214,3.4845707 56.267178 0 0 0.10546,-0.0227 5.3042473,3.4785548 56.267172 0 1 -0.39171,0.18232 5.3134214,3.4845707 56.267178 0 0 0.44809,-0.0487 5.3134214,3.4845707 56.267178 0 0 0.27312,-0.0687 5.3134214,3.4845707 56.267178 0 0 0.28541,-0.0394 5.3134214,3.4845707 56.267178 0 0 1.56933,-5.30633 5.3042473,3.4785548 56.267172 0 1 1.20005,-5.19682 5.3134214,3.4845707 56.267178 0 0 -0.4481,0.0487 5.3134214,3.4845707 56.267178 0 0 -0.27295,0.0686 5.3134214,3.4845707 56.267178 0 0 -0.28557,0.0395 5.3134214,3.4845707 56.267178 0 0 -0.10545,0.0227 5.3042473,3.4785548 56.267172 0 1 0.3917,-0.18233 z"
           style="opacity:1;fill:url(#linearGradient1250);fill-opacity:1;stroke:none;stroke-width:0.014251;stroke-miterlimit:4;stroke-dasharray:none"
           id="path1186" />
        <path
           id="path1188"
           style="opacity:1;fill:url(#linearGradient1252);fill-opacity:1;stroke:none;stroke-width:0.0144852;stroke-miterlimit:4;stroke-dasharray:none"
           d="m 149.17129,134.5835 a 5.1298197,3.7288832 68.929578 0 0 -2.69103,5.15894 5.1209625,3.7224452 68.929574 0 1 -2.29349,5.08295 5.1298197,3.7288832 68.929578 0 0 0.46501,-0.008 5.1298197,3.7288832 68.929578 0 0 0.19005,-0.0251 5.1298197,3.7288832 68.929578 0 0 0.19267,-0.0123 5.1298197,3.7288832 68.929578 0 0 0.10335,-0.012 5.1298197,3.7288832 68.929578 0 0 0.10341,-0.008 5.1298197,3.7288832 68.929578 0 0 0.19008,-0.0251 5.1298197,3.7288832 68.929578 0 0 0.19265,-0.0122 5.1298197,3.7288832 68.929578 0 0 2.69107,-5.15895 5.1209625,3.7224452 68.929574 0 1 2.29349,-5.08299 5.1298197,3.7288832 68.929578 0 0 -0.46506,0.008 5.1298197,3.7288832 68.929578 0 0 -0.18975,0.025 5.1298197,3.7288832 68.929578 0 0 -0.19298,0.0123 5.1298197,3.7288832 68.929578 0 0 -0.10324,0.0119 5.1298197,3.7288832 68.929578 0 0 -0.1035,0.008 5.1298197,3.7288832 68.929578 0 0 -0.18991,0.0251 5.1298197,3.7288832 68.929578 0 0 -0.19282,0.0122 z" />
      </g>
      <g
         style="opacity:0.62963"
         id="g1188">
        <g
           id="g1126"
           style="opacity:1"
           transform="translate(61.012458,60.620822)">
          <path
             d="m 88.825602,18.044838 a 3.0067863,4.4210449 5.5608715 0 0 -0.0474,0.0061 3.001595,4.4134116 5.560872 0 1 2.388393,4.328739 3.0067863,4.4210449 5.5608715 0 0 2.709699,4.373245 3.0067863,4.4210449 5.5608715 0 0 0.214229,-0.003 3.0067863,4.4210449 5.5608715 0 0 0.212604,0.01896 3.0067863,4.4210449 5.5608715 0 0 0.366468,-0.01884 3.001595,4.4134116 5.560872 0 1 -0.313225,-0.08729 3.0067863,4.4210449 5.5608715 0 0 0.159856,0.01235 3.0067863,4.4210449 5.5608715 0 0 0.213827,-0.003 3.0067863,4.4210449 5.5608715 0 0 0.213006,0.01891 3.0067863,4.4210449 5.5608715 0 0 0.366066,-0.0188 3.001595,4.4134116 5.560872 0 1 -2.388798,-4.328691 3.0067863,4.4210449 5.5608715 0 0 -2.709697,-4.373246 3.0067863,4.4210449 5.5608715 0 0 -0.214231,0.003 3.0067863,4.4210449 5.5608715 0 0 -0.212602,-0.01896 3.0067863,4.4210449 5.5608715 0 0 -0.366065,0.0188 3.001595,4.4134116 5.560872 0 1 0.313692,0.08753 3.0067863,4.4210449 5.5608715 0 0 -0.160324,-0.0126 3.0067863,4.4210449 5.5608715 0 0 -0.214231,0.003 3.0067863,4.4210449 5.5608715 0 0 -0.212602,-0.01896 3.0067863,4.4210449 5.5608715 0 0 -0.31867,0.01273 z"
             style="opacity:1;fill:url(#linearGradient2906);fill-opacity:1;stroke:none;stroke-width:0.0120753;stroke-miterlimit:4;stroke-dasharray:none"
             id="path1116" />
          <path
             d="m 89.963849,18.042376 a 2.9324832,4.5330653 22.524498 0 0 -0.248559,-0.05735 2.9324832,4.5330653 22.524498 0 0 -4.202526,3.685434 2.9274202,4.5252385 22.524499 0 1 -3.876965,3.705234 2.9324832,4.5330653 22.524498 0 0 0.346019,0.08971 2.9324832,4.5330653 22.524498 0 0 0.355712,0.02646 2.9274202,4.5252385 22.524499 0 1 -0.26658,0.01434 2.9324832,4.5330653 22.524498 0 0 0.346019,0.08971 2.9324832,4.5330653 22.524498 0 0 4.202564,-3.68541 2.9274202,4.5252385 22.524499 0 1 3.876993,-3.70527 2.9324832,4.5330653 22.524498 0 0 -0.346085,-0.08966 2.9324832,4.5330653 22.524498 0 0 -0.356036,-0.02644 2.9274202,4.5252385 22.524499 0 1 0.266936,-0.01438 2.9324832,4.5330653 22.524498 0 0 -0.09749,-0.03236 z"
             style="opacity:1;fill:url(#linearGradient2908);fill-opacity:1;stroke:none;stroke-width:0.0120753;stroke-miterlimit:4;stroke-dasharray:none"
             id="path1118" />
          <path
             d="m 89.529064,18.115954 a 4.5081658,2.9486798 69.867006 0 0 -0.09859,0.03051 4.5003821,2.9435889 69.867005 0 1 3.745564,3.777167 4.5081658,2.9486798 69.867006 0 0 4.071753,3.763476 4.5081658,2.9486798 69.867006 0 0 0.349038,-0.08315 4.5003821,2.9435889 69.867005 0 1 -0.06893,-0.002 4.5081658,2.9486798 69.867006 0 0 0.04897,-0.0064 4.5081658,2.9486798 69.867006 0 0 0.349053,-0.08315 4.5003821,2.9435889 69.867005 0 1 -3.745545,-3.777143 4.5081658,2.9486798 69.867006 0 0 -4.071703,-3.763481 4.5081658,2.9486798 69.867006 0 0 -0.349119,0.0831 4.5003821,2.9435889 69.867005 0 1 0.0691,0.0019 4.5081658,2.9486798 69.867006 0 0 -0.04905,0.0064 4.5081658,2.9486798 69.867006 0 0 -0.250498,0.05265 z"
             style="opacity:1;fill:url(#linearGradient2910);fill-opacity:1;stroke:none;stroke-width:0.0120753;stroke-miterlimit:4;stroke-dasharray:none"
             id="path1120" />
          <path
             d="m 90.809492,18.127847 a 3.011475,4.4141616 0 0 0 -0.364376,0.03244 3.0062757,4.4065401 0 0 1 2.686068,4.234048 3.011475,4.4141616 0 0 0 3.009779,4.266511 3.011475,4.4141616 0 0 0 0.213479,-0.0111 3.011475,4.4141616 0 0 0 0.213866,0.0111 3.011475,4.4141616 0 0 0 0.364348,-0.0325 3.0062757,4.4065401 0 0 1 -2.686095,-4.234025 3.011475,4.4141616 0 0 0 -3.009724,-4.266505 3.011475,4.4141616 0 0 0 -0.213708,0.0111 3.011475,4.4141616 0 0 0 -0.213637,-0.0111 z"
             style="opacity:1;fill:url(#linearGradient2912);fill-opacity:1;stroke:none;stroke-width:0.0120753;stroke-miterlimit:4;stroke-dasharray:none"
             id="path1122" />
          <path
             d="m 89.559222,18.075606 a 3.0114749,4.4141615 0 0 0 -3.009428,4.266535 3.0062757,4.40654 0 0 1 -2.686103,4.233963 3.0114749,4.4141615 0 0 0 0.3641,0.03257 3.0114749,4.4141615 0 0 0 0.235257,-0.01374 3.0114749,4.4141615 0 0 0 0.234851,0.01374 3.0114749,4.4141615 0 0 0 2.434128,-1.815026 4.4323007,2.9888031 79.284089 0 1 -1.958718,2.253991 4.4399667,2.9939722 79.28409 0 0 0.366953,0.006 4.4399667,2.9939722 79.28409 0 0 0.211203,-0.0266 4.4399667,2.9939722 79.28409 0 0 0.214056,-0.0045 4.4399667,2.9939722 79.28409 0 0 2.418635,-4.463755 4.4323007,2.9888031 79.284089 0 1 2.101014,-4.408174 4.4399667,2.9939722 79.28409 0 0 -0.252791,-0.01076 3.0062757,4.40654 0 0 1 0.16146,-0.03197 3.0114749,4.4141615 0 0 0 -0.364507,-0.03227 3.0114749,4.4141615 0 0 0 -0.23485,0.01345 3.0114749,4.4141615 0 0 0 -0.23526,-0.01345 z"
             style="opacity:1;fill:url(#linearGradient2914);fill-opacity:1;stroke:none;stroke-width:0.0120753;stroke-miterlimit:4;stroke-dasharray:none"
             id="path1124" />
        </g>
        <path
           d="m 149.83806,78.66566 a 3.0067863,4.4210449 5.5608715 0 0 -0.0474,0.0061 3.001595,4.4134116 5.560872 0 1 2.38839,4.328739 3.0067863,4.4210449 5.5608715 0 0 2.7097,4.373245 3.0067863,4.4210449 5.5608715 0 0 0.21423,-0.003 3.0067863,4.4210449 5.5608715 0 0 0.2126,0.01896 3.0067863,4.4210449 5.5608715 0 0 0.36647,-0.01884 3.001595,4.4134116 5.560872 0 1 -0.31322,-0.08729 3.0067863,4.4210449 5.5608715 0 0 0.15985,0.01235 3.0067863,4.4210449 5.5608715 0 0 0.21383,-0.003 3.0067863,4.4210449 5.5608715 0 0 0.21301,0.01891 3.0067863,4.4210449 5.5608715 0 0 0.36606,-0.0188 3.001595,4.4134116 5.560872 0 1 -2.3888,-4.328691 3.0067863,4.4210449 5.5608715 0 0 -2.70969,-4.373246 3.0067863,4.4210449 5.5608715 0 0 -0.21423,0.003 3.0067863,4.4210449 5.5608715 0 0 -0.21261,-0.01896 3.0067863,4.4210449 5.5608715 0 0 -0.36606,0.0188 3.001595,4.4134116 5.560872 0 1 0.31369,0.08753 3.0067863,4.4210449 5.5608715 0 0 -0.16032,-0.0126 3.0067863,4.4210449 5.5608715 0 0 -0.21423,0.003 3.0067863,4.4210449 5.5608715 0 0 -0.21261,-0.01896 3.0067863,4.4210449 5.5608715 0 0 -0.31867,0.01273 z"
           style="opacity:1;fill:url(#linearGradient1254);fill-opacity:1;stroke:none;stroke-width:0.0120753;stroke-miterlimit:4;stroke-dasharray:none"
           id="path1192" />
        <path
           d="m 150.97631,78.663198 a 2.9324832,4.5330653 22.524498 0 0 -0.24856,-0.05735 2.9324832,4.5330653 22.524498 0 0 -4.20253,3.685434 2.9274202,4.5252385 22.524499 0 1 -3.87696,3.705234 2.9324832,4.5330653 22.524498 0 0 0.34602,0.08971 2.9324832,4.5330653 22.524498 0 0 0.35571,0.02646 2.9274202,4.5252385 22.524499 0 1 -0.26658,0.01434 2.9324832,4.5330653 22.524498 0 0 0.34602,0.08971 2.9324832,4.5330653 22.524498 0 0 4.20256,-3.68541 2.9274202,4.5252385 22.524499 0 1 3.87699,-3.70527 2.9324832,4.5330653 22.524498 0 0 -0.34608,-0.08966 2.9324832,4.5330653 22.524498 0 0 -0.35604,-0.02644 2.9274202,4.5252385 22.524499 0 1 0.26694,-0.01438 2.9324832,4.5330653 22.524498 0 0 -0.0975,-0.03236 z"
           style="opacity:1;fill:url(#linearGradient1256);fill-opacity:1;stroke:none;stroke-width:0.0120753;stroke-miterlimit:4;stroke-dasharray:none"
           id="path1194" />
        <path
           d="m 150.54152,78.736776 a 4.5081658,2.9486798 69.867006 0 0 -0.0986,0.03051 4.5003821,2.9435889 69.867005 0 1 3.74557,3.777167 4.5081658,2.9486798 69.867006 0 0 4.07175,3.763476 4.5081658,2.9486798 69.867006 0 0 0.34904,-0.08315 4.5003821,2.9435889 69.867005 0 1 -0.0689,-0.002 4.5081658,2.9486798 69.867006 0 0 0.049,-0.0064 4.5081658,2.9486798 69.867006 0 0 0.34905,-0.08315 4.5003821,2.9435889 69.867005 0 1 -3.74555,-3.777143 4.5081658,2.9486798 69.867006 0 0 -4.0717,-3.763481 4.5081658,2.9486798 69.867006 0 0 -0.34912,0.0831 4.5003821,2.9435889 69.867005 0 1 0.0691,0.0019 4.5081658,2.9486798 69.867006 0 0 -0.049,0.0064 4.5081658,2.9486798 69.867006 0 0 -0.25049,0.05265 z"
           style="opacity:1;fill:url(#linearGradient1258);fill-opacity:1;stroke:none;stroke-width:0.0120753;stroke-miterlimit:4;stroke-dasharray:none"
           id="path1196" />
        <path
           d="m 151.82195,78.748669 a 3.011475,4.4141616 0 0 0 -0.36438,0.03244 3.0062757,4.4065401 0 0 1 2.68607,4.234048 3.011475,4.4141616 0 0 0 3.00978,4.266511 3.011475,4.4141616 0 0 0 0.21348,-0.0111 3.011475,4.4141616 0 0 0 0.21387,0.0111 3.011475,4.4141616 0 0 0 0.36434,-0.0325 3.0062757,4.4065401 0 0 1 -2.68609,-4.234025 3.011475,4.4141616 0 0 0 -3.00972,-4.266505 3.011475,4.4141616 0 0 0 -0.21371,0.0111 3.011475,4.4141616 0 0 0 -0.21364,-0.0111 z"
           style="opacity:1;fill:url(#linearGradient1260);fill-opacity:1;stroke:none;stroke-width:0.0120753;stroke-miterlimit:4;stroke-dasharray:none"
           id="path1198" />
        <path
           d="m 150.57168,78.696428 a 3.0114749,4.4141615 0 0 0 -3.00943,4.266535 3.0062757,4.40654 0 0 1 -2.6861,4.233963 3.0114749,4.4141615 0 0 0 0.3641,0.03257 3.0114749,4.4141615 0 0 0 0.23526,-0.01374 3.0114749,4.4141615 0 0 0 0.23485,0.01374 3.0114749,4.4141615 0 0 0 2.43412,-1.815026 4.4323007,2.9888031 79.284089 0 1 -1.95871,2.253991 4.4399667,2.9939722 79.28409 0 0 0.36695,0.006 4.4399667,2.9939722 79.28409 0 0 0.2112,-0.0266 4.4399667,2.9939722 79.28409 0 0 0.21406,-0.0045 4.4399667,2.9939722 79.28409 0 0 2.41863,-4.463755 4.4323007,2.9888031 79.284089 0 1 2.10102,-4.408174 4.4399667,2.9939722 79.28409 0 0 -0.25279,-0.01076 3.0062757,4.40654 0 0 1 0.16146,-0.03197 3.0114749,4.4141615 0 0 0 -0.36451,-0.03227 3.0114749,4.4141615 0 0 0 -0.23485,0.01345 3.0114749,4.4141615 0 0 0 -0.23526,-0.01345 z"
           style="opacity:1;fill:url(#linearGradient1262);fill-opacity:1;stroke:none;stroke-width:0.0120753;stroke-miterlimit:4;stroke-dasharray:none"
           id="path1200" />
      </g>
    </g>
  </g>
  <g
     inkscape:groupmode="layer"
     id="layer2"
     inkscape:label="Design"
     style="display:none"
     sodipodi:insensitive="true">
    <g
       id="g261"
       transform="translate(-1.3609051)">
      <path
         style="fill:none;stroke:#000000;stroke-width:0.264583px;stroke-linecap:butt;stroke-linejoin:miter;stroke-opacity:1"
         d="M -84.355333,112.37862 V 73.693847 l -17.116087,28.442203 z"
         id="path2383" />
      <path
         id="path2385"
         d="M -84.355333,112.37862 V 73.693847 l 17.116085,28.442203 z"
         style="fill:none;stroke:#000000;stroke-width:0.264583px;stroke-linecap:butt;stroke-linejoin:miter;stroke-opacity:1" />
      <path
         style="fill:none;stroke:#000000;stroke-width:0.264583px;stroke-linecap:butt;stroke-linejoin:miter;stroke-opacity:1"
         d="m -84.355333,112.37862 17.116085,-10.24257 -17.139167,-7.750668 -17.093005,7.750668 z"
         id="path2387" />
      <path
         style="fill:none;stroke:#000000;stroke-width:0.264583px;stroke-linecap:butt;stroke-linejoin:miter;stroke-opacity:1"
         d="m -84.361662,129.66024 v -14.02127 l 17.277148,-10.18774 z"
         id="path2389" />
      <path
         id="path2391"
         d="M -84.361662,129.66024 V 115.63897 L -101.63881,105.45123 Z"
         style="fill:none;stroke:#000000;stroke-width:0.264583px;stroke-linecap:butt;stroke-linejoin:miter;stroke-opacity:1" />
    </g>
    <text
       id="text2926"
       y="59.436462"
       x="-143.86189"
       style="font-size:5.29167px;line-height:1.25;font-family:Arial;-inkscape-font-specification:'Arial, Normal';stroke-width:0.264583"
       xml:space="preserve"><tspan
         style="font-style:normal;font-variant:normal;font-weight:normal;font-stretch:normal;font-size:12.3472px;font-family:Arial;-inkscape-font-specification:'Arial, Normal';font-variant-ligatures:normal;font-variant-caps:normal;font-variant-numeric:normal;font-variant-east-asian:normal;stroke-width:0.264583"
         y="59.436462"
         x="-143.86189"
         id="tspan2924"
         sodipodi:role="line">ETHGDL LOGO V2.1</tspan></text>
  </g>
</svg>
